<svg id="svg" version="1.1" xmlns="http://www.w3.org/2000/svg" xmlns:xlink="http://www.w3.org/1999/xlink"
     width="35"
     height="35" viewBox="0, 0, 135,129"><g id="svgg"><path id="path0" d="M63.333 5.952 C 54.631 6.149,52.521 6.427,51.500 7.508 C 50.957 8.083,50.543 8.355,50.000 8.493 C 48.448 8.886,47.402 9.403,46.544 10.202 C 45.695 10.992,44.530 11.656,43.977 11.663 C 43.794 11.665,43.666 11.873,43.589 12.292 C 43.386 13.391,42.905 14.246,41.917 15.257 C 40.701 16.502,40.665 16.646,40.676 20.166 C 40.690 24.745,40.806 25.492,41.619 26.227 C 42.348 26.885,42.721 27.709,42.987 29.250 C 43.335 31.259,43.720 32.340,44.125 32.442 C 44.331 32.494,44.500 32.607,44.500 32.693 C 44.500 32.779,44.839 33.169,45.253 33.561 C 45.667 33.952,45.968 34.310,45.922 34.356 C 45.876 34.402,46.100 34.693,46.419 35.002 C 46.739 35.312,47.000 35.696,47.000 35.856 C 47.000 36.016,47.076 36.194,47.169 36.252 C 47.263 36.309,47.298 36.422,47.249 36.501 C 47.200 36.581,47.292 36.724,47.455 36.818 C 47.733 36.980,47.732 36.990,47.438 36.995 C 47.170 36.999,47.157 37.038,47.349 37.268 C 47.495 37.445,47.593 37.471,47.635 37.345 C 47.683 37.200,47.756 37.200,47.931 37.345 C 48.059 37.451,48.115 37.616,48.056 37.711 C 47.993 37.813,48.029 37.835,48.144 37.764 C 48.251 37.698,48.291 37.566,48.233 37.472 C 48.106 37.266,48.740 37.590,49.363 38.049 C 49.779 38.356,49.804 38.447,49.739 39.397 C 49.661 40.531,50.184 41.129,50.810 40.622 C 51.020 40.452,51.039 40.460,50.917 40.667 C 50.790 40.882,50.808 40.885,51.051 40.689 C 51.678 40.179,52.400 41.218,51.938 41.965 C 51.870 42.076,51.881 42.167,51.962 42.167 C 52.044 42.167,52.111 42.277,52.111 42.412 C 52.111 42.594,51.929 42.649,51.401 42.626 C 51.011 42.609,50.722 42.545,50.760 42.483 C 50.869 42.308,50.403 41.988,50.240 42.126 C 50.160 42.194,50.195 42.119,50.318 41.958 C 50.487 41.738,50.491 41.667,50.336 41.667 C 50.215 41.667,50.174 41.555,50.235 41.395 C 50.357 41.078,49.816 40.591,49.647 40.865 C 49.577 40.979,49.503 40.974,49.428 40.851 C 49.365 40.750,49.398 40.667,49.500 40.667 C 49.602 40.667,49.637 40.587,49.577 40.490 C 49.508 40.378,49.384 40.424,49.239 40.615 C 48.936 41.015,48.941 41.442,49.250 41.560 C 49.388 41.613,49.500 41.584,49.500 41.495 C 49.500 41.406,49.406 41.328,49.292 41.322 C 49.177 41.315,49.233 41.250,49.417 41.176 C 49.903 40.980,50.003 41.105,49.978 41.885 L 49.956 42.583 49.833 42.000 C 49.760 41.652,49.702 41.560,49.689 41.771 C 49.677 41.966,49.550 42.223,49.407 42.341 C 49.193 42.519,49.157 42.515,49.199 42.320 C 49.227 42.190,49.313 42.038,49.389 41.982 C 49.465 41.926,49.426 41.841,49.302 41.793 C 49.130 41.727,49.066 41.957,49.030 42.770 C 48.988 43.697,49.021 43.835,49.283 43.846 C 49.448 43.853,49.715 43.884,49.875 43.915 C 50.035 43.945,50.167 43.874,50.167 43.756 C 50.167 43.260,51.862 42.643,52.113 43.047 C 52.176 43.151,52.135 43.167,52.008 43.088 C 51.854 42.993,51.827 43.051,51.908 43.305 C 51.999 43.592,51.957 43.639,51.660 43.582 C 51.401 43.532,51.328 43.580,51.395 43.754 C 51.471 43.953,51.431 43.960,51.167 43.795 C 50.935 43.650,50.902 43.559,51.048 43.467 C 51.166 43.392,51.177 43.337,51.074 43.336 C 50.976 43.334,50.751 43.452,50.574 43.597 C 50.341 43.787,50.324 43.838,50.515 43.779 C 51.073 43.607,51.215 43.922,51.190 45.275 C 51.170 46.300,51.228 46.662,51.457 46.945 L 51.750 47.307 52.458 46.968 C 53.050 46.685,53.167 46.550,53.167 46.148 C 53.167 45.883,53.257 45.667,53.367 45.667 C 53.522 45.667,53.522 45.622,53.367 45.467 C 53.096 45.196,53.115 45.000,53.411 45.000 C 53.571 45.000,53.619 44.904,53.550 44.723 C 53.478 44.536,53.507 44.485,53.638 44.566 C 53.756 44.639,53.833 44.581,53.833 44.421 C 53.833 44.213,53.901 44.191,54.145 44.322 C 54.316 44.413,54.516 44.435,54.588 44.369 C 54.661 44.304,54.669 44.339,54.607 44.447 C 54.545 44.555,54.560 44.684,54.641 44.734 C 55.341 45.166,55.179 46.591,54.228 48.372 C 54.048 48.710,54.024 48.988,54.136 49.455 C 54.220 49.801,54.299 50.271,54.312 50.500 C 54.326 50.729,54.368 51.067,54.406 51.250 C 54.443 51.433,54.480 51.629,54.487 51.684 C 54.494 51.739,54.689 51.989,54.921 52.239 C 55.152 52.489,55.561 53.127,55.828 53.656 C 56.132 54.258,56.633 54.886,57.162 55.329 C 58.712 56.627,59.552 59.758,58.635 60.821 C 57.707 61.897,56.427 61.570,55.653 60.059 C 55.035 58.854,54.817 58.584,54.210 58.271 C 53.639 57.977,53.123 57.137,52.917 56.167 C 52.721 55.245,52.203 54.361,51.707 54.100 C 51.456 53.968,50.743 53.372,50.123 52.776 C 49.477 52.154,48.787 51.646,48.505 51.585 C 47.850 51.440,47.041 50.490,46.913 49.712 C 46.758 48.773,46.549 48.446,45.870 48.081 C 44.928 47.574,44.520 46.674,43.903 43.750 C 43.862 43.557,43.534 43.276,43.125 43.083 C 42.232 42.663,41.810 41.870,41.400 39.840 C 41.126 38.483,41.054 38.327,40.629 38.151 C 40.009 37.894,39.390 37.139,39.244 36.462 C 39.058 35.600,38.521 34.669,38.100 34.477 C 37.887 34.380,37.535 34.018,37.316 33.673 C 36.892 33.002,35.906 32.333,35.340 32.333 C 35.006 32.333,34.077 31.583,33.999 31.250 C 33.861 30.656,33.629 30.333,33.298 30.272 C 33.088 30.233,32.369 30.118,31.700 30.016 C 30.084 29.771,29.292 29.348,28.806 28.472 C 28.277 27.517,28.000 27.468,23.452 27.531 C 19.916 27.579,19.605 27.607,19.435 27.895 C 18.796 28.973,18.475 29.297,17.591 29.753 C 16.876 30.121,16.485 30.459,16.148 31.001 C 15.852 31.477,15.404 31.896,14.906 32.164 C 14.347 32.464,13.998 32.814,13.675 33.395 C 13.423 33.847,12.885 34.452,12.461 34.760 C 11.604 35.382,11.449 35.580,11.371 36.146 C 11.264 36.919,10.741 37.745,10.072 38.194 C 9.400 38.644,9.388 38.670,8.928 40.699 C 8.427 42.905,8.185 43.431,7.258 44.327 C 6.506 45.054,6.398 45.485,6.167 48.667 C 5.867 52.818,5.378 54.867,4.338 56.327 C 3.482 57.529,3.574 65.901,4.457 67.192 C 5.361 68.513,5.792 69.785,6.085 72.000 C 6.205 72.907,6.658 74.025,6.857 73.902 C 6.935 73.854,7.000 73.906,7.000 74.018 C 7.000 74.130,7.044 74.178,7.098 74.125 C 7.254 73.968,7.958 74.662,8.175 75.186 C 8.284 75.450,8.468 75.667,8.583 75.667 C 8.698 75.667,8.881 75.774,8.990 75.904 C 9.098 76.035,9.606 76.274,10.119 76.435 C 10.748 76.633,11.291 76.962,11.791 77.447 C 12.462 78.100,12.611 78.168,13.390 78.181 C 13.863 78.188,15.112 78.249,16.167 78.316 C 19.658 78.538,22.667 78.125,22.667 77.425 C 22.667 77.141,23.616 76.325,24.054 76.234 C 25.906 75.845,27.025 75.667,27.605 75.667 C 28.254 75.667,28.794 75.350,28.554 75.110 C 28.494 75.049,28.532 75.000,28.639 75.000 C 28.746 75.000,28.833 74.893,28.833 74.762 C 28.833 74.188,30.803 73.563,33.904 73.153 C 35.353 72.962,35.409 72.938,36.052 72.232 C 36.414 71.834,36.776 71.548,36.855 71.597 C 36.935 71.646,37.000 71.594,37.000 71.482 C 37.000 71.370,37.049 71.327,37.110 71.387 C 37.170 71.448,37.321 71.413,37.445 71.310 C 37.840 70.982,41.129 70.763,42.080 71.001 C 42.675 71.150,43.894 72.267,43.737 72.520 C 43.688 72.600,43.839 72.593,44.074 72.504 C 44.308 72.414,44.500 72.408,44.500 72.489 C 44.500 72.569,44.669 72.591,44.875 72.538 C 45.226 72.446,45.232 72.458,44.970 72.720 C 44.816 72.874,44.473 73.000,44.208 73.000 C 43.811 73.000,43.565 73.201,42.830 74.125 C 41.611 75.658,41.664 75.573,41.586 76.107 C 41.435 77.137,41.323 77.423,40.960 77.702 C 40.521 78.041,39.576 78.513,39.187 78.588 C 39.038 78.617,38.898 78.656,38.875 78.675 C 38.852 78.693,38.777 78.724,38.708 78.744 C 38.640 78.763,38.471 78.822,38.333 78.875 C 37.767 79.092,36.473 79.336,36.336 79.252 C 36.256 79.202,36.143 79.237,36.085 79.331 C 36.027 79.424,35.801 79.500,35.582 79.500 C 35.017 79.500,33.338 79.956,33.064 80.183 C 32.937 80.288,32.833 80.329,32.833 80.275 C 32.833 80.220,32.629 80.253,32.379 80.348 C 32.129 80.443,31.625 80.562,31.258 80.614 C 30.891 80.665,30.327 80.848,30.006 81.020 C 29.685 81.192,29.289 81.333,29.127 81.333 C 28.966 81.333,28.833 81.412,28.833 81.507 C 28.833 81.603,28.740 81.663,28.625 81.641 C 28.316 81.582,27.667 81.832,27.667 82.011 C 27.667 82.097,27.554 82.167,27.417 82.167 C 27.279 82.167,27.167 82.230,27.167 82.307 C 27.167 82.384,26.735 82.541,26.208 82.656 C 24.742 82.977,24.096 83.302,23.191 84.174 C 22.380 84.956,22.234 85.023,20.000 85.642 C 19.734 85.716,19.472 85.997,19.275 86.420 C 18.844 87.347,18.374 87.808,17.633 88.030 C 16.887 88.253,16.817 88.331,16.434 89.368 C 16.145 90.152,15.375 90.833,14.780 90.833 C 14.523 90.833,14.170 91.724,14.168 92.375 C 14.166 92.845,13.189 95.545,12.856 96.000 C 11.993 97.181,11.639 99.295,12.193 99.960 C 12.638 100.494,13.504 102.494,13.751 103.560 C 14.113 105.121,14.434 105.775,15.165 106.435 C 15.821 107.028,16.833 108.794,16.833 109.346 C 16.833 109.931,17.044 110.155,17.849 110.422 C 18.667 110.694,19.500 111.672,19.500 112.361 C 19.500 112.642,19.928 112.877,20.941 113.150 C 21.582 113.323,23.500 114.712,23.500 115.003 C 23.500 115.074,24.081 115.410,24.792 115.750 C 26.231 116.437,26.719 116.821,26.991 117.479 C 27.230 118.054,27.629 118.296,28.527 118.407 C 28.924 118.457,29.438 118.540,29.667 118.592 C 29.896 118.644,30.302 118.726,30.569 118.774 C 31.265 118.900,31.738 119.254,32.094 119.916 C 32.474 120.620,32.513 120.636,34.401 120.832 C 37.515 121.155,39.689 121.707,41.271 122.577 C 43.254 123.666,48.270 123.649,49.238 122.550 C 49.797 121.915,50.613 121.440,51.458 121.257 C 51.756 121.193,52.000 121.080,52.000 121.007 C 52.000 120.934,52.244 120.775,52.542 120.655 C 53.444 120.290,54.766 118.799,55.338 117.500 C 55.566 116.981,56.330 116.167,56.589 116.167 C 57.016 116.167,57.368 115.500,57.443 114.552 C 57.485 114.019,57.577 113.396,57.648 113.167 C 57.977 112.111,57.999 108.634,57.708 103.758 C 57.367 98.042,57.424 91.376,57.819 90.728 C 58.181 90.136,59.652 89.705,61.427 89.673 C 61.616 89.669,61.935 89.514,62.135 89.327 L 62.500 88.987 62.500 89.343 C 62.500 89.870,63.390 90.608,64.309 90.843 C 65.661 91.190,66.103 92.101,65.922 94.167 C 65.894 94.487,65.817 95.537,65.750 96.500 C 65.684 97.462,65.584 98.325,65.529 98.417 C 65.474 98.508,65.451 98.789,65.477 99.042 C 65.503 99.294,65.457 99.500,65.374 99.500 C 65.290 99.500,65.235 99.669,65.251 99.875 C 65.267 100.081,65.176 100.625,65.050 101.083 C 64.723 102.273,64.583 104.294,64.583 107.833 C 64.583 112.111,64.688 112.739,65.471 113.191 C 66.241 113.633,66.742 114.735,67.007 116.567 C 67.258 118.303,67.424 118.637,68.098 118.764 C 68.730 118.882,69.011 119.157,69.441 120.077 C 69.611 120.441,70.012 120.907,70.333 121.113 C 71.489 121.856,71.673 122.027,71.994 122.655 C 72.173 123.005,72.437 123.337,72.580 123.392 C 73.938 123.913,85.131 123.792,87.083 123.235 C 87.267 123.183,87.567 122.910,87.750 122.628 C 88.198 121.938,89.601 121.178,90.657 121.053 C 91.550 120.948,91.813 120.760,92.917 119.439 C 93.192 119.110,93.503 118.839,93.608 118.837 C 93.714 118.835,94.201 118.647,94.692 118.418 C 95.182 118.190,95.733 117.999,95.917 117.994 C 96.100 117.989,96.400 117.793,96.583 117.560 C 97.371 116.555,97.643 116.350,98.522 116.094 C 99.291 115.871,100.540 115.000,100.092 115.000 C 100.019 115.000,100.043 114.899,100.145 114.776 C 100.247 114.653,100.281 114.503,100.221 114.443 C 100.160 114.383,100.190 114.333,100.286 114.333 C 100.382 114.333,100.500 114.183,100.548 114.000 C 100.596 113.817,100.755 113.667,100.901 113.667 C 101.047 113.667,101.167 113.587,101.167 113.490 C 101.167 113.393,101.236 113.357,101.322 113.410 C 101.407 113.462,101.525 113.428,101.583 113.333 C 101.642 113.239,101.753 113.200,101.830 113.248 C 102.000 113.353,102.833 112.394,102.833 112.093 C 102.833 111.686,103.552 110.966,104.264 110.661 C 105.030 110.332,105.254 110.046,105.382 109.230 C 105.516 108.381,105.986 107.555,106.852 106.647 C 107.300 106.177,107.667 105.669,107.667 105.517 C 107.667 105.365,107.768 105.093,107.893 104.912 C 108.017 104.731,108.209 104.306,108.320 103.967 C 108.524 103.338,109.497 102.333,109.902 102.333 C 110.259 102.333,110.364 101.466,110.437 97.944 C 110.520 93.946,110.439 93.548,109.456 93.083 C 108.924 92.832,108.661 92.563,108.388 91.994 C 108.189 91.578,107.814 91.034,107.555 90.785 C 106.816 90.076,106.063 89.315,105.291 88.500 C 104.901 88.087,104.339 87.623,104.042 87.467 C 103.745 87.311,103.382 86.930,103.234 86.621 C 102.932 85.988,102.240 85.574,101.250 85.435 C 100.370 85.311,98.691 84.439,98.158 83.829 C 97.734 83.343,97.727 83.342,94.158 83.010 C 90.037 82.626,89.295 82.424,88.231 81.389 C 87.531 80.709,87.331 80.616,85.940 80.320 C 85.102 80.143,84.257 79.961,84.062 79.917 C 83.867 79.873,83.342 79.531,82.896 79.156 C 82.449 78.781,81.896 78.399,81.667 78.307 L 81.250 78.141 81.667 77.820 C 81.896 77.644,82.158 77.444,82.250 77.375 C 82.342 77.306,82.807 76.927,83.284 76.532 C 83.795 76.110,84.393 75.776,84.738 75.720 C 85.333 75.623,85.642 75.199,85.402 74.809 C 85.327 74.688,85.355 74.660,85.474 74.734 C 85.645 74.839,85.751 74.534,85.686 74.125 C 85.676 74.056,85.742 74.000,85.833 74.000 C 85.925 74.000,85.991 73.944,85.980 73.875 C 85.969 73.806,85.978 73.675,85.999 73.583 C 86.021 73.492,86.049 73.324,86.061 73.210 C 86.085 72.987,86.319 72.920,86.356 73.125 C 86.399 73.366,87.002 73.685,87.193 73.567 C 87.312 73.494,87.340 73.522,87.266 73.641 C 87.195 73.755,87.253 73.833,87.407 73.833 C 87.550 73.833,87.667 73.908,87.667 74.000 C 87.667 74.092,87.804 74.167,87.972 74.167 C 88.140 74.167,88.334 74.223,88.403 74.292 C 88.472 74.360,88.597 74.426,88.681 74.438 C 88.765 74.449,88.852 74.476,88.875 74.497 C 88.898 74.518,89.329 74.557,89.833 74.585 C 90.864 74.640,91.147 74.695,91.484 74.905 C 91.655 75.012,91.686 74.989,91.597 74.817 C 91.530 74.689,91.593 74.729,91.738 74.907 C 91.929 75.143,92.001 75.166,92.005 74.990 C 92.009 74.806,92.062 74.818,92.232 75.042 C 92.354 75.202,92.539 75.333,92.643 75.333 C 92.748 75.333,92.833 75.408,92.833 75.500 C 92.833 75.592,92.965 75.667,93.125 75.668 C 93.285 75.669,93.792 75.854,94.250 76.080 C 94.708 76.305,95.215 76.492,95.375 76.495 C 95.535 76.498,95.667 76.575,95.667 76.667 C 95.667 76.758,95.812 76.833,95.990 76.833 C 96.168 76.833,96.358 76.905,96.412 76.993 C 96.466 77.080,96.615 77.112,96.742 77.063 C 96.870 77.014,97.130 77.130,97.320 77.320 C 97.511 77.511,97.667 77.616,97.667 77.554 C 97.667 77.492,97.836 77.601,98.042 77.794 C 98.720 78.432,101.879 78.721,108.333 78.737 C 117.884 78.760,119.093 78.607,120.571 77.195 C 121.082 76.706,121.500 76.359,121.500 76.424 C 121.500 76.488,121.597 76.460,121.717 76.361 C 121.836 76.262,122.244 76.132,122.623 76.071 C 123.582 75.918,124.122 75.367,124.025 74.640 C 123.999 74.448,125.324 73.333,125.578 73.333 C 125.924 73.333,126.107 72.899,126.246 71.750 C 126.313 71.200,126.429 70.633,126.505 70.491 C 126.581 70.348,126.671 69.934,126.705 69.570 C 126.739 69.206,126.824 68.817,126.893 68.704 C 126.963 68.592,126.977 68.431,126.925 68.348 C 126.874 68.264,126.910 68.169,127.006 68.137 C 127.103 68.105,127.194 67.911,127.210 67.706 C 127.225 67.501,127.305 67.333,127.387 67.333 C 127.469 67.333,127.493 67.223,127.441 67.088 C 127.390 66.953,127.445 66.784,127.565 66.713 C 127.685 66.642,128.000 66.251,128.266 65.845 L 128.750 65.107 128.741 61.345 L 128.733 57.583 128.210 56.667 C 127.612 55.619,126.842 53.401,126.734 52.417 C 126.694 52.050,126.620 51.568,126.570 51.345 C 126.520 51.122,126.445 50.522,126.404 50.012 C 126.222 47.742,125.984 47.009,125.225 46.387 C 124.754 46.001,124.425 45.548,124.241 45.029 C 123.497 42.938,123.266 42.475,122.807 42.148 C 122.164 41.690,121.368 40.267,121.233 39.334 C 121.081 38.283,120.927 38.057,120.123 37.701 C 119.318 37.344,119.053 37.069,118.583 36.104 C 118.400 35.728,118.063 35.336,117.833 35.234 C 116.247 34.524,116.074 34.398,115.750 33.714 C 115.473 33.132,115.317 32.996,114.833 32.917 C 114.513 32.865,113.820 32.712,113.294 32.578 C 112.768 32.443,112.153 32.333,111.925 32.333 C 111.698 32.333,111.116 32.193,110.631 32.022 C 108.729 31.350,107.793 31.316,105.500 31.835 C 104.354 32.094,102.479 32.448,101.333 32.621 C 99.315 32.925,99.243 32.950,99.020 33.426 C 98.695 34.119,98.213 34.611,97.650 34.820 C 97.384 34.919,96.933 35.088,96.648 35.195 C 96.323 35.317,95.952 35.678,95.654 36.161 C 95.282 36.767,94.898 37.089,93.881 37.653 C 93.006 38.138,92.230 38.749,91.500 39.526 C 90.600 40.485,90.276 40.716,89.592 40.890 C 88.796 41.093,88.760 41.129,88.565 41.896 C 88.453 42.333,88.168 42.984,87.931 43.342 C 87.694 43.700,87.500 44.054,87.500 44.129 C 87.500 44.203,87.132 44.612,86.682 45.036 C 86.055 45.628,85.802 46.022,85.598 46.723 C 85.337 47.622,84.593 48.500,84.093 48.500 C 83.613 48.500,83.043 49.164,82.933 49.852 C 82.808 50.637,82.467 51.170,81.233 52.517 C 80.689 53.110,80.273 53.761,80.093 54.303 C 79.818 55.132,79.052 56.000,78.596 56.000 C 78.242 56.000,77.845 56.567,77.584 57.445 C 77.301 58.400,76.951 58.775,76.057 59.082 C 75.502 59.273,75.402 59.392,75.229 60.071 C 74.892 61.393,74.090 62.163,73.047 62.168 C 72.852 62.169,72.550 62.546,72.167 63.270 C 71.026 65.421,70.413 65.700,69.726 64.380 C 69.279 63.522,68.315 62.466,67.831 62.305 C 67.201 62.095,69.042 60.667,69.943 60.667 C 70.402 60.667,70.809 60.181,70.929 59.489 C 71.071 58.677,71.506 57.882,71.907 57.701 C 72.096 57.616,72.512 57.433,72.833 57.296 C 73.367 57.066,73.458 56.920,73.899 55.564 C 74.399 54.026,74.497 53.904,75.816 53.167 C 76.226 52.938,76.685 52.525,76.835 52.250 C 77.163 51.650,78.073 51.000,78.586 51.000 C 79.735 51.000,80.095 49.946,79.811 47.417 C 79.581 45.366,79.766 44.452,80.497 44.033 C 80.872 43.817,80.997 43.600,81.084 43.005 C 81.144 42.590,81.338 41.922,81.514 41.520 C 81.690 41.119,81.833 40.702,81.833 40.593 C 81.833 40.330,82.625 39.601,83.256 39.283 C 83.786 39.016,84.018 38.660,84.333 37.630 C 84.519 37.020,85.227 36.284,85.938 35.960 C 86.204 35.839,86.332 35.587,86.416 35.022 C 86.709 33.054,87.433 31.603,88.259 31.330 C 88.840 31.139,89.163 30.492,89.166 29.518 C 89.167 29.057,89.782 26.908,90.054 26.417 C 90.155 26.233,90.241 26.008,90.244 25.917 C 90.247 25.825,90.327 25.750,90.421 25.750 C 91.420 25.750,91.977 23.007,91.741 19.250 C 91.607 17.120,91.581 17.048,90.833 16.666 C 90.211 16.349,89.509 15.369,89.495 14.798 C 89.487 14.485,88.772 13.723,88.365 13.593 C 87.968 13.468,87.167 12.581,87.167 12.268 C 87.167 11.937,86.301 11.223,85.645 11.014 C 84.939 10.789,84.570 10.426,84.415 9.806 C 84.288 9.295,83.807 9.068,82.583 8.941 C 80.617 8.736,79.237 8.068,78.444 6.939 C 78.324 6.767,78.006 6.600,77.738 6.566 C 76.783 6.445,74.071 6.199,73.333 6.167 C 70.756 6.053,64.667 5.922,63.333 5.952 M68.035 43.256 C 68.153 43.396,68.329 43.603,68.426 43.714 C 68.592 43.905,68.823 44.377,68.933 44.750 C 68.960 44.842,69.092 45.264,69.227 45.689 C 69.634 46.971,68.208 49.301,67.310 48.821 C 67.139 48.729,67.000 48.694,67.000 48.743 C 67.000 49.012,65.243 47.689,64.887 47.151 L 64.464 46.513 64.848 45.715 C 65.661 44.024,67.493 42.611,68.035 43.256 M78.492 46.311 C 79.369 49.597,79.302 49.805,77.182 50.341 C 76.778 50.443,76.240 50.734,75.986 50.988 L 75.525 51.449 75.115 51.096 C 74.091 50.216,73.862 49.383,74.281 48.055 C 74.952 45.925,78.047 44.643,78.492 46.311 M57.898 47.872 C 58.833 48.937,58.780 49.342,57.529 50.704 L 57.113 51.158 56.738 50.651 C 55.868 49.471,55.859 48.814,56.702 47.743 C 57.126 47.204,57.331 47.226,57.898 47.872 M65.565 57.787 C 65.670 62.858,65.569 62.500,67.255 63.825 C 67.858 64.299,68.398 64.813,68.456 64.968 C 69.225 67.048,70.288 67.721,72.165 67.318 C 72.837 67.174,73.069 67.183,73.283 67.360 C 73.514 67.550,73.287 67.596,71.742 67.667 L 69.930 67.750 69.461 68.509 C 68.226 70.509,69.055 73.643,71.177 75.004 C 71.401 75.147,71.491 75.986,71.296 76.106 C 71.182 76.177,71.160 76.132,71.237 75.984 C 71.326 75.812,71.299 75.817,71.137 76.000 C 70.907 76.259,70.727 76.324,69.966 76.424 C 68.544 76.609,68.195 77.382,68.094 80.571 C 68.083 80.931,67.982 81.256,67.869 81.294 C 67.757 81.331,67.707 81.430,67.759 81.514 C 67.933 81.797,67.682 81.669,67.340 81.302 C 67.153 81.101,67.000 80.768,67.000 80.562 C 67.000 80.355,66.929 80.143,66.843 80.089 C 66.757 80.036,66.636 79.656,66.574 79.246 C 66.513 78.836,66.403 78.500,66.330 78.500 C 66.257 78.500,66.237 78.350,66.285 78.167 C 66.345 77.939,66.290 77.833,66.112 77.833 C 65.969 77.833,65.754 77.702,65.634 77.542 C 65.515 77.381,65.318 77.230,65.197 77.205 C 65.076 77.180,64.798 76.992,64.580 76.788 C 63.219 75.517,62.507 75.363,60.827 75.978 C 59.981 76.288,59.257 76.425,58.958 76.331 C 58.890 76.309,58.756 76.282,58.661 76.271 C 58.208 76.216,57.280 73.950,56.402 70.750 C 55.975 69.193,55.648 68.508,54.990 67.789 C 54.783 67.563,54.748 67.330,54.840 66.789 C 55.058 65.506,55.386 64.346,55.508 64.422 C 55.574 64.463,55.670 64.340,55.720 64.148 C 55.770 63.956,55.885 63.845,55.975 63.901 C 56.065 63.957,56.164 63.924,56.196 63.829 C 56.228 63.731,57.204 63.588,58.419 63.502 C 61.043 63.317,62.526 62.955,63.198 62.337 C 63.845 61.741,64.472 59.929,64.417 58.810 C 64.251 55.407,64.292 54.061,64.594 53.000 L 64.902 51.917 65.193 52.870 C 65.421 53.620,65.501 54.669,65.565 57.787 M49.819 53.909 C 50.165 54.088,50.317 54.319,50.397 54.784 C 50.520 55.501,51.006 56.167,51.405 56.167 C 51.821 56.167,52.056 56.876,51.927 57.737 C 51.824 58.428,51.782 58.484,51.490 58.328 C 51.312 58.233,51.166 58.214,51.164 58.286 C 51.163 58.358,51.098 58.316,51.019 58.192 C 50.941 58.069,50.680 57.956,50.439 57.942 C 50.197 57.928,50.000 57.860,50.000 57.792 C 50.000 57.723,49.816 57.667,49.592 57.667 C 48.767 57.667,47.667 55.817,47.667 54.431 C 47.667 53.888,48.991 53.025,49.213 53.422 C 49.288 53.557,49.561 53.776,49.819 53.909 M46.667 59.988 C 47.320 60.314,48.589 61.965,48.551 62.441 C 48.493 63.174,47.400 63.760,46.167 63.721 C 43.777 63.643,43.691 63.622,43.052 62.968 L 42.437 62.339 42.721 61.439 C 43.268 59.705,44.898 59.105,46.667 59.988 M85.535 61.128 C 86.281 61.458,87.055 62.100,87.120 62.443 C 87.140 62.549,87.196 62.868,87.245 63.152 C 87.294 63.435,87.374 63.903,87.424 64.192 C 87.753 66.111,84.491 67.416,81.950 66.381 C 81.382 66.150,80.691 65.936,80.416 65.907 C 78.710 65.726,76.798 65.305,76.339 65.010 C 76.035 64.814,76.454 64.642,78.580 64.086 C 80.891 63.483,80.932 63.459,81.486 62.361 C 82.347 60.656,83.603 60.273,85.535 61.128 M52.500 64.226 C 52.500 64.305,52.629 64.320,52.787 64.259 C 52.944 64.199,53.020 64.202,52.956 64.266 C 52.891 64.331,52.968 64.478,53.125 64.593 C 54.019 65.247,52.042 65.915,50.882 65.352 C 50.236 65.038,49.941 64.505,50.479 64.625 C 50.582 64.648,50.667 64.598,50.667 64.514 C 50.667 64.430,50.873 64.292,51.125 64.207 C 51.684 64.020,52.499 64.031,52.500 64.226 M53.255 69.011 C 54.670 69.662,54.706 69.717,54.927 71.558 C 55.168 73.568,54.113 74.095,52.350 72.847 C 52.112 72.678,51.482 72.443,50.951 72.325 C 50.419 72.207,49.946 72.048,49.899 71.972 C 49.852 71.896,49.606 71.833,49.351 71.833 C 49.097 71.833,48.833 71.777,48.764 71.708 C 48.695 71.640,48.439 71.573,48.194 71.560 C 47.950 71.548,47.611 71.529,47.441 71.519 C 47.237 71.506,47.164 71.414,47.227 71.250 C 47.291 71.083,47.220 71.000,47.014 71.000 C 46.437 71.000,46.479 70.104,47.074 69.697 C 47.616 69.325,48.725 68.894,49.570 68.726 C 49.852 68.670,50.346 68.565,50.667 68.492 C 51.478 68.308,51.920 68.397,53.255 69.011 M74.917 69.290 C 75.806 69.604,76.191 69.699,76.545 69.692 C 76.717 69.689,76.794 69.763,76.728 69.869 C 76.661 69.977,76.692 70.004,76.804 69.935 C 77.028 69.797,77.667 70.104,77.667 70.349 C 77.667 70.443,77.592 70.473,77.500 70.417 C 77.408 70.360,77.333 70.388,77.333 70.479 C 77.333 70.570,77.182 70.692,76.998 70.751 C 76.813 70.809,76.700 70.919,76.747 70.995 C 76.793 71.070,76.715 71.177,76.572 71.231 C 76.429 71.286,76.359 71.407,76.416 71.499 C 76.473 71.591,76.436 71.667,76.333 71.667 C 76.231 71.667,76.179 71.723,76.219 71.792 C 76.258 71.860,76.075 72.091,75.812 72.304 C 75.549 72.518,75.333 72.624,75.333 72.540 C 75.333 72.457,75.240 72.380,75.125 72.369 C 75.010 72.357,74.429 72.303,73.833 72.249 C 71.218 72.008,69.729 71.117,70.082 70.004 C 70.135 69.838,70.344 69.650,70.547 69.585 C 72.051 69.109,72.525 69.015,73.333 69.034 C 73.837 69.045,74.550 69.161,74.917 69.290 M81.317 73.042 C 81.726 74.124,81.709 75.442,81.280 75.872 L 80.865 76.286 80.683 75.885 C 80.486 75.453,80.428 72.961,80.611 72.778 C 80.838 72.551,81.179 72.678,81.317 73.042 M78.345 73.821 C 78.547 73.848,79.231 75.436,79.200 75.807 C 79.100 77.021,78.431 77.438,77.576 76.818 C 77.213 76.556,76.679 76.171,76.388 75.965 C 75.919 75.631,75.511 74.667,75.839 74.667 C 75.902 74.667,75.920 74.489,75.878 74.272 C 75.807 73.900,75.852 73.876,76.677 73.858 C 77.157 73.847,77.582 73.807,77.620 73.769 C 77.658 73.731,77.816 73.724,77.970 73.754 C 78.124 73.783,78.293 73.814,78.345 73.821 M46.701 74.375 C 46.506 74.611,46.816 75.167,47.143 75.167 C 47.248 75.167,47.333 75.284,47.333 75.427 C 47.333 75.621,47.194 75.674,46.792 75.636 C 46.144 75.573,46.053 74.167,46.697 74.167 C 46.820 74.167,46.821 74.230,46.701 74.375 M55.556 75.493 C 55.704 75.644,55.655 75.768,55.348 76.019 C 54.840 76.433,53.316 76.419,53.464 76.001 C 53.513 75.863,53.492 75.806,53.417 75.874 C 53.342 75.942,53.172 75.907,53.039 75.797 C 52.838 75.630,52.890 75.562,53.357 75.386 C 54.003 75.142,55.272 75.204,55.556 75.493 M57.113 76.664 C 57.993 76.670,58.229 77.696,57.549 78.560 C 56.838 79.463,56.136 79.074,55.953 77.675 C 55.900 77.268,55.910 77.021,55.975 77.127 C 56.056 77.258,56.165 77.207,56.314 76.969 C 56.505 76.664,56.499 76.632,56.267 76.721 C 56.120 76.777,56.000 76.741,56.000 76.642 C 56.000 76.536,56.155 76.503,56.375 76.562 C 56.581 76.617,56.913 76.663,57.113 76.664 M50.474 77.719 C 51.234 77.820,51.634 78.222,51.334 78.583 C 51.213 78.729,51.013 78.810,50.890 78.763 C 50.767 78.716,50.667 78.744,50.667 78.825 C 50.667 78.906,50.160 78.960,49.542 78.944 C 48.155 78.910,48.039 79.003,48.171 80.035 C 48.423 81.996,46.087 82.720,45.151 80.971 C 44.714 80.154,46.860 78.427,47.589 79.010 C 47.881 79.243,48.193 78.916,48.091 78.484 C 48.013 78.155,48.090 78.037,48.525 77.826 C 49.037 77.576,49.290 77.562,50.474 77.719 M75.892 77.766 C 76.299 78.007,76.187 78.522,75.670 78.780 C 75.351 78.938,75.231 78.939,75.132 78.784 C 75.062 78.673,75.004 78.636,75.003 78.700 C 75.001 78.765,74.644 78.709,74.208 78.577 C 73.773 78.445,73.248 78.336,73.042 78.335 C 72.626 78.333,72.555 78.133,72.876 77.867 C 73.262 77.546,75.400 77.475,75.892 77.766 M62.365 78.583 C 62.328 78.904,62.236 79.167,62.161 79.167 C 62.086 79.167,61.991 79.298,61.949 79.458 C 61.908 79.619,61.875 79.356,61.875 78.875 C 61.877 78.170,61.931 78.000,62.155 78.000 C 62.375 78.000,62.419 78.123,62.365 78.583 M82.667 80.842 C 82.667 83.577,81.562 85.120,80.117 84.401 C 79.561 84.125,77.333 81.928,77.333 81.656 C 77.333 81.570,77.271 81.500,77.194 81.500 C 77.045 81.500,76.986 81.242,76.986 80.583 C 76.986 79.984,77.044 79.655,77.133 79.744 C 77.176 79.787,77.369 79.737,77.563 79.633 C 77.756 79.530,78.553 79.412,79.332 79.372 C 80.112 79.332,80.779 79.272,80.814 79.239 C 80.903 79.153,82.667 80.678,82.667 80.842 M55.103 80.079 C 55.249 80.226,55.369 80.512,55.368 80.714 C 55.366 81.318,55.197 82.482,55.085 82.664 C 55.027 82.757,55.057 82.833,55.151 82.833 C 55.446 82.833,54.706 83.894,54.047 84.416 C 52.897 85.329,51.887 85.703,51.341 85.421 C 49.455 84.445,49.333 81.867,51.133 81.035 C 51.472 80.878,51.773 80.701,51.800 80.640 C 51.890 80.445,52.500 79.779,52.500 79.877 C 52.500 79.929,52.706 79.911,52.958 79.837 C 53.629 79.640,54.795 79.772,55.103 80.079 M60.207 80.161 C 60.134 80.368,60.160 80.377,60.342 80.208 C 60.643 79.929,60.833 79.945,60.833 80.250 C 60.833 80.387,60.913 80.500,61.010 80.500 C 61.107 80.500,61.140 80.575,61.083 80.667 C 61.027 80.758,61.060 80.833,61.157 80.833 C 61.357 80.833,61.391 80.613,61.217 80.440 C 61.040 80.262,61.009 79.819,61.181 79.926 C 61.265 79.977,61.333 80.116,61.333 80.234 C 61.333 80.534,61.867 81.083,62.159 81.083 C 62.293 81.083,62.443 81.233,62.492 81.417 C 62.542 81.600,62.797 82.107,63.059 82.544 C 63.585 83.422,63.587 85.770,63.063 86.294 C 62.937 86.420,62.833 86.668,62.833 86.845 C 62.833 87.022,62.758 87.167,62.667 87.167 C 62.575 87.167,62.490 87.523,62.478 87.958 C 62.459 88.657,62.433 88.593,62.255 87.417 C 61.991 85.663,61.722 84.746,61.371 84.394 C 61.213 84.236,61.121 84.082,61.167 84.052 C 61.212 84.022,61.006 83.849,60.708 83.668 C 60.208 83.363,60.082 83.157,60.156 82.765 C 60.171 82.682,60.087 82.552,59.967 82.476 C 59.789 82.363,59.789 82.338,59.968 82.336 C 60.088 82.334,60.142 82.262,60.088 82.174 C 60.034 82.086,59.867 82.062,59.717 82.119 C 59.554 82.182,59.487 82.155,59.551 82.053 C 59.608 81.959,59.516 81.609,59.346 81.275 C 59.175 80.940,59.104 80.667,59.188 80.667 C 59.272 80.667,59.419 80.495,59.514 80.286 C 59.710 79.856,60.353 79.740,60.207 80.161 M69.000 82.391 C 68.771 82.512,68.548 82.582,68.505 82.546 C 68.388 82.450,68.879 82.172,69.167 82.172 C 69.304 82.172,69.230 82.270,69.000 82.391 M70.659 82.861 C 70.836 83.151,71.031 83.695,71.093 84.069 C 71.324 85.456,71.627 85.939,72.488 86.297 C 73.593 86.756,74.534 88.099,74.359 88.967 C 74.221 89.647,73.055 90.404,72.363 90.264 C 72.117 90.214,71.729 90.141,71.500 90.102 C 71.271 90.063,70.892 89.956,70.658 89.865 C 70.424 89.774,70.124 89.761,69.991 89.835 C 68.487 90.676,67.323 90.544,66.018 89.386 L 65.289 88.740 65.620 88.078 C 65.802 87.714,66.165 86.854,66.426 86.167 C 67.017 84.615,67.488 83.965,68.237 83.672 C 68.557 83.546,68.787 83.394,68.749 83.332 C 68.621 83.124,69.200 82.477,69.434 82.567 C 69.562 82.616,69.667 82.584,69.667 82.495 C 69.667 82.112,70.359 82.368,70.659 82.861 M59.924 85.845 C 60.088 86.111,59.837 87.529,59.637 87.462 C 59.254 87.335,58.995 86.124,59.301 85.892 C 59.650 85.626,59.783 85.616,59.924 85.845 " stroke="none" fill="#239397" fill-rule="evenodd"></path>

    <path id="path2" d="M390.748 51.167 C 390.748 66.154,390.768 72.285,390.792 64.792 C 390.816 57.298,390.816 45.035,390.792 37.542 C 390.768 30.048,390.748 36.179,390.748 51.167 M66.186 43.958 C 65.661 44.485,65.059 45.276,64.848 45.715 L 64.464 46.513 64.887 47.151 C 65.243 47.689,67.000 49.012,67.000 48.743 C 67.000 48.694,67.139 48.729,67.310 48.821 C 68.208 49.301,69.634 46.971,69.227 45.689 C 69.092 45.264,68.960 44.842,68.933 44.750 C 68.823 44.377,68.592 43.905,68.426 43.714 C 68.329 43.603,68.153 43.396,68.035 43.256 C 67.647 42.794,67.161 42.979,66.186 43.958 M76.589 45.842 C 75.224 46.177,74.721 46.658,74.281 48.055 C 73.862 49.383,74.091 50.216,75.115 51.096 L 75.525 51.449 75.986 50.988 C 76.240 50.734,76.778 50.443,77.182 50.341 C 79.011 49.878,79.262 49.537,78.904 47.997 C 78.287 45.334,78.364 45.406,76.589 45.842 M56.702 47.743 C 55.859 48.814,55.868 49.471,56.738 50.651 L 57.113 51.158 57.529 50.704 C 58.780 49.342,58.833 48.937,57.898 47.872 C 57.331 47.226,57.126 47.204,56.702 47.743 M64.594 53.000 C 64.292 54.061,64.251 55.407,64.417 58.810 C 64.572 61.971,63.030 63.177,58.419 63.502 C 57.204 63.588,56.228 63.731,56.196 63.829 C 56.164 63.924,56.065 63.957,55.975 63.901 C 55.885 63.845,55.770 63.956,55.720 64.148 C 55.670 64.340,55.574 64.463,55.508 64.422 C 55.386 64.346,55.058 65.506,54.840 66.789 C 54.748 67.330,54.783 67.563,54.990 67.789 C 55.648 68.508,55.975 69.193,56.402 70.750 C 57.280 73.950,58.208 76.216,58.661 76.271 C 58.756 76.282,58.890 76.309,58.958 76.331 C 59.257 76.425,59.981 76.288,60.827 75.978 C 62.507 75.363,63.219 75.517,64.580 76.788 C 64.798 76.992,65.076 77.180,65.197 77.205 C 65.318 77.230,65.515 77.381,65.634 77.542 C 65.754 77.702,65.969 77.833,66.112 77.833 C 66.290 77.833,66.345 77.939,66.285 78.167 C 66.237 78.350,66.257 78.500,66.330 78.500 C 66.403 78.500,66.513 78.836,66.574 79.246 C 66.636 79.656,66.757 80.036,66.843 80.089 C 66.929 80.143,67.000 80.355,67.000 80.562 C 67.000 80.768,67.153 81.101,67.340 81.302 C 67.682 81.669,67.933 81.797,67.759 81.514 C 67.707 81.430,67.757 81.331,67.869 81.294 C 67.982 81.256,68.083 80.931,68.094 80.571 C 68.195 77.382,68.544 76.609,69.966 76.424 C 70.727 76.324,70.907 76.259,71.137 76.000 C 71.299 75.817,71.326 75.812,71.237 75.984 C 71.160 76.132,71.182 76.177,71.296 76.106 C 71.491 75.986,71.401 75.147,71.177 75.004 C 69.055 73.643,68.226 70.509,69.461 68.509 L 69.930 67.750 71.742 67.667 C 73.287 67.596,73.514 67.550,73.283 67.360 C 73.069 67.183,72.837 67.174,72.165 67.318 C 70.288 67.721,69.225 67.048,68.456 64.968 C 68.398 64.813,67.858 64.299,67.255 63.825 C 65.569 62.500,65.670 62.858,65.565 57.787 C 65.501 54.669,65.421 53.620,65.193 52.870 L 64.902 51.917 64.594 53.000 M48.372 53.599 C 47.541 54.094,47.501 54.351,48.014 55.874 C 48.398 57.015,48.972 57.667,49.592 57.667 C 49.816 57.667,50.000 57.723,50.000 57.792 C 50.000 57.860,50.197 57.928,50.439 57.942 C 50.680 57.956,50.941 58.069,51.019 58.192 C 51.098 58.316,51.163 58.358,51.164 58.286 C 51.166 58.214,51.312 58.233,51.490 58.328 C 51.782 58.484,51.824 58.428,51.927 57.737 C 52.056 56.876,51.821 56.167,51.405 56.167 C 51.006 56.167,50.520 55.501,50.397 54.784 C 50.317 54.319,50.165 54.088,49.819 53.909 C 49.561 53.776,49.288 53.557,49.213 53.422 C 49.098 53.217,48.964 53.245,48.372 53.599 M43.350 60.100 C 43.160 60.341,42.877 60.944,42.721 61.439 L 42.437 62.339 43.052 62.968 C 43.691 63.622,43.777 63.643,46.167 63.721 C 48.369 63.792,49.094 62.659,47.833 61.114 C 46.637 59.648,44.148 59.085,43.350 60.100 M82.533 61.014 C 82.205 61.230,81.782 61.774,81.486 62.361 C 80.932 63.459,80.891 63.483,78.580 64.086 C 76.454 64.642,76.035 64.814,76.339 65.010 C 76.798 65.305,78.710 65.726,80.416 65.907 C 80.691 65.936,81.382 66.150,81.950 66.381 C 84.491 67.416,87.753 66.111,87.424 64.192 C 87.374 63.903,87.294 63.435,87.245 63.152 C 87.196 62.868,87.140 62.549,87.120 62.443 C 86.896 61.262,83.677 60.258,82.533 61.014 M51.125 64.207 C 50.873 64.292,50.667 64.430,50.667 64.514 C 50.667 64.598,50.582 64.648,50.479 64.625 C 49.941 64.505,50.236 65.038,50.882 65.352 C 52.042 65.915,54.019 65.247,53.125 64.593 C 52.968 64.478,52.891 64.331,52.956 64.266 C 53.020 64.202,52.944 64.199,52.787 64.259 C 52.629 64.320,52.500 64.305,52.500 64.226 C 52.499 64.031,51.684 64.020,51.125 64.207 M80.611 72.778 C 80.428 72.961,80.486 75.453,80.683 75.885 L 80.865 76.286 81.280 75.872 C 81.664 75.488,81.686 75.381,81.577 74.437 C 81.397 72.885,81.069 72.320,80.611 72.778 M53.357 75.386 C 52.890 75.562,52.838 75.630,53.039 75.797 C 53.172 75.907,53.342 75.942,53.417 75.874 C 53.492 75.806,53.513 75.863,53.464 76.001 C 53.316 76.419,54.840 76.433,55.348 76.019 C 56.107 75.399,54.595 74.918,53.357 75.386 M56.000 76.642 C 56.000 76.741,56.120 76.777,56.267 76.721 C 56.499 76.632,56.505 76.664,56.314 76.969 C 56.165 77.207,56.056 77.258,55.975 77.127 C 55.910 77.021,55.900 77.268,55.953 77.675 C 56.136 79.074,56.838 79.463,57.549 78.560 C 58.229 77.696,57.993 76.670,57.113 76.664 C 56.913 76.663,56.581 76.617,56.375 76.562 C 56.155 76.503,56.000 76.536,56.000 76.642 M48.525 77.826 C 48.090 78.037,48.013 78.155,48.091 78.484 C 48.193 78.916,47.881 79.243,47.589 79.010 C 46.860 78.427,44.714 80.154,45.151 80.971 C 46.087 82.720,48.423 81.996,48.171 80.035 C 48.039 79.003,48.155 78.910,49.542 78.944 C 50.160 78.960,50.667 78.906,50.667 78.825 C 50.667 78.744,50.767 78.716,50.890 78.763 C 51.013 78.810,51.213 78.729,51.334 78.583 C 51.634 78.222,51.234 77.820,50.474 77.719 C 49.290 77.562,49.037 77.576,48.525 77.826 M73.667 77.639 C 72.778 77.723,72.231 78.331,73.042 78.335 C 73.248 78.336,73.773 78.445,74.208 78.577 C 74.644 78.709,75.001 78.765,75.003 78.700 C 75.004 78.636,75.062 78.673,75.132 78.784 C 75.311 79.065,76.061 78.678,76.141 78.262 C 76.252 77.681,75.422 77.472,73.667 77.639 M80.814 79.239 C 80.779 79.272,80.112 79.332,79.332 79.372 C 78.553 79.412,77.756 79.530,77.563 79.633 C 77.369 79.737,77.176 79.787,77.133 79.744 C 77.044 79.655,76.986 79.984,76.986 80.583 C 76.986 81.242,77.045 81.500,77.194 81.500 C 77.271 81.500,77.333 81.570,77.333 81.656 C 77.333 81.928,79.561 84.125,80.117 84.401 C 81.562 85.120,82.667 83.577,82.667 80.842 C 82.667 80.678,80.903 79.153,80.814 79.239 M52.958 79.837 C 52.706 79.911,52.500 79.929,52.500 79.877 C 52.500 79.779,51.890 80.445,51.800 80.640 C 51.773 80.701,51.472 80.878,51.133 81.035 C 49.333 81.867,49.455 84.445,51.341 85.421 C 51.887 85.703,52.897 85.329,54.047 84.416 C 54.706 83.894,55.446 82.833,55.151 82.833 C 55.057 82.833,55.027 82.757,55.085 82.664 C 55.197 82.482,55.366 81.318,55.368 80.714 C 55.371 79.937,54.142 79.489,52.958 79.837 M68.671 82.327 C 68.275 82.578,68.545 82.631,69.000 82.391 C 69.230 82.270,69.304 82.172,69.167 82.172 C 69.029 82.172,68.806 82.242,68.671 82.327 M69.667 82.495 C 69.667 82.584,69.562 82.616,69.434 82.567 C 69.200 82.477,68.621 83.124,68.749 83.332 C 68.787 83.394,68.557 83.546,68.237 83.672 C 67.488 83.965,67.017 84.615,66.426 86.167 C 66.165 86.854,65.802 87.714,65.620 88.078 L 65.289 88.740 66.018 89.386 C 67.323 90.544,68.487 90.676,69.991 89.835 C 70.124 89.761,70.424 89.774,70.658 89.865 C 70.892 89.956,71.271 90.063,71.500 90.102 C 71.729 90.141,72.117 90.214,72.363 90.264 C 73.055 90.404,74.221 89.647,74.359 88.967 C 74.534 88.099,73.593 86.756,72.488 86.297 C 71.627 85.939,71.324 85.456,71.093 84.069 C 70.902 82.921,69.667 81.557,69.667 82.495 M59.301 85.892 C 59.050 86.083,59.043 86.178,59.242 86.756 C 59.550 87.652,59.789 87.657,59.922 86.772 C 60.078 85.733,59.880 85.452,59.301 85.892 " stroke="none" fill="#239397" fill-rule="evenodd"></path><path id="path3" d="M62.443 2.613 C 62.402 2.653,61.855 2.715,61.226 2.751 C 59.782 2.834,59.278 2.911,58.984 3.095 C 58.855 3.176,58.611 3.219,58.440 3.191 C 58.252 3.160,58.174 3.210,58.242 3.320 C 58.303 3.419,58.269 3.500,58.167 3.500 C 58.064 3.500,58.027 3.575,58.083 3.667 C 58.140 3.758,58.076 3.833,57.940 3.833 C 57.805 3.833,57.669 3.901,57.639 3.983 C 57.557 4.204,54.475 4.786,52.750 4.906 C 49.527 5.129,48.429 5.491,48.304 6.368 C 48.225 6.927,46.636 7.833,45.736 7.833 C 44.893 7.833,43.993 8.188,43.444 8.738 C 43.219 8.963,42.978 9.095,42.908 9.032 C 42.837 8.968,42.831 9.005,42.893 9.113 C 42.955 9.222,42.925 9.360,42.826 9.421 C 42.727 9.482,42.569 9.731,42.474 9.975 C 42.314 10.388,42.264 10.601,42.080 11.663 C 41.970 12.298,41.460 12.880,40.661 13.283 C 40.262 13.485,39.845 13.822,39.735 14.033 C 39.180 15.096,38.935 20.020,39.222 24.333 C 39.299 25.479,39.384 26.794,39.413 27.256 C 39.470 28.176,40.029 29.477,40.788 30.455 C 41.331 31.155,42.103 32.946,42.029 33.333 C 41.946 33.767,41.515 34.613,41.277 34.811 C 41.024 35.021,39.946 33.589,39.740 32.769 C 39.667 32.479,39.391 32.231,38.859 31.976 C 37.825 31.481,36.897 30.726,36.467 30.030 C 36.062 29.374,35.427 29.065,34.153 28.906 C 32.901 28.749,31.776 28.119,31.503 27.424 C 31.225 26.715,30.434 26.334,29.010 26.224 C 28.409 26.178,27.327 26.033,26.607 25.903 C 25.099 25.631,22.557 25.599,21.583 25.839 C 21.217 25.930,20.354 26.076,19.667 26.163 C 17.392 26.453,16.613 26.770,16.355 27.510 C 16.192 27.977,15.067 28.970,14.267 29.352 C 14.001 29.479,13.664 29.809,13.517 30.084 C 13.016 31.024,12.113 31.998,11.556 32.199 C 11.250 32.310,11.000 32.466,11.000 32.546 C 11.000 32.821,9.281 35.154,9.142 35.068 C 8.954 34.952,7.954 36.035,7.890 36.423 C 7.876 36.511,7.818 36.996,7.761 37.500 C 7.604 38.894,6.866 40.652,6.387 40.772 C 5.545 40.984,5.080 42.215,4.916 44.667 C 4.762 46.979,4.309 48.418,3.664 48.643 C 3.388 48.739,3.175 48.878,3.191 48.951 C 3.207 49.024,3.163 49.233,3.094 49.417 C 2.766 50.289,2.669 50.638,2.560 51.333 C 2.365 52.580,2.328 69.651,2.518 70.583 C 2.612 71.042,2.723 71.591,2.766 71.805 C 2.854 72.238,3.247 72.700,3.751 72.961 C 3.935 73.057,4.385 73.720,4.751 74.435 C 5.484 75.866,6.080 76.667,6.413 76.667 C 6.817 76.667,8.248 77.989,8.333 78.442 C 8.571 79.694,9.385 79.822,17.083 79.811 C 23.579 79.802,23.875 79.826,24.375 80.389 C 24.653 80.703,24.653 80.728,24.375 80.922 C 23.733 81.372,22.873 81.794,22.041 82.070 C 21.560 82.230,20.861 82.615,20.487 82.927 C 20.114 83.239,19.504 83.585,19.131 83.697 C 18.469 83.895,16.500 85.564,16.500 85.927 C 16.500 86.019,16.276 86.227,16.002 86.389 C 15.729 86.550,15.297 86.960,15.044 87.300 C 14.791 87.639,14.523 87.943,14.448 87.976 C 13.746 88.282,13.078 89.496,12.903 90.782 C 12.742 91.970,12.395 92.645,11.879 92.774 C 11.101 92.970,10.636 93.550,10.477 94.525 C 10.278 95.742,10.317 102.441,10.528 103.349 C 10.621 103.753,10.716 104.187,10.737 104.315 C 10.759 104.442,10.900 104.637,11.052 104.748 C 11.204 104.859,11.286 104.991,11.235 105.042 C 11.185 105.093,11.367 105.184,11.641 105.244 C 12.284 105.386,12.694 106.236,13.209 108.493 C 13.385 109.266,13.517 109.471,14.083 109.854 C 14.450 110.103,14.756 110.368,14.764 110.445 C 14.845 111.245,17.620 114.264,18.876 114.918 C 19.220 115.097,19.544 115.377,19.596 115.541 C 19.648 115.704,19.760 115.795,19.845 115.743 C 19.930 115.690,20.000 115.768,20.000 115.915 C 20.000 116.246,20.849 116.616,21.934 116.757 C 22.972 116.892,24.468 117.815,24.241 118.181 C 24.162 118.309,25.204 119.236,25.458 119.264 C 25.527 119.272,25.787 119.363,26.036 119.466 C 26.285 119.569,26.885 119.770,27.369 119.913 C 28.440 120.228,28.535 120.292,28.796 120.885 C 29.089 121.551,30.126 121.950,31.917 122.085 C 33.713 122.221,35.248 122.806,35.401 123.413 C 35.695 124.586,36.845 124.750,44.750 124.750 C 52.008 124.749,52.137 124.729,52.708 123.538 C 53.027 122.872,54.167 121.815,54.500 121.876 C 54.831 121.937,55.518 121.349,55.771 120.788 C 56.221 119.788,56.962 118.834,57.293 118.828 C 58.051 118.814,58.573 117.864,58.760 116.160 C 58.897 114.913,59.300 114.023,60.099 113.201 C 60.530 112.757,60.803 112.186,61.241 110.815 C 61.558 109.824,61.949 108.811,62.110 108.566 L 62.403 108.119 62.772 110.018 C 62.975 111.062,63.191 112.629,63.253 113.500 C 63.386 115.378,63.769 116.405,64.449 116.705 C 65.096 116.992,65.264 117.254,65.592 118.500 C 65.926 119.764,66.653 121.166,66.974 121.166 C 67.290 121.167,69.333 123.247,69.333 123.568 C 69.333 123.714,69.403 123.833,69.488 123.833 C 69.573 123.833,69.742 123.929,69.863 124.045 C 70.225 124.393,72.203 125.287,72.870 125.404 C 73.508 125.516,74.565 126.261,74.419 126.496 C 74.101 127.011,80.751 127.490,81.637 127.016 C 81.813 126.922,81.995 126.884,82.043 126.932 C 82.091 126.980,82.395 126.909,82.718 126.774 C 83.042 126.639,83.362 126.578,83.430 126.639 C 83.498 126.700,83.499 126.656,83.433 126.540 C 83.362 126.418,83.421 126.289,83.573 126.231 C 83.716 126.176,83.833 126.036,83.833 125.919 C 83.833 125.397,85.674 124.874,87.917 124.760 C 89.011 124.704,91.320 124.234,90.755 124.182 C 90.665 124.173,90.759 124.050,90.963 123.907 C 91.167 123.765,91.336 123.521,91.340 123.366 C 91.345 123.174,91.926 122.805,93.155 122.215 C 94.667 121.489,94.991 121.265,95.136 120.850 C 95.390 120.120,96.556 119.335,97.400 119.326 C 98.244 119.316,99.822 118.685,100.068 118.260 C 100.168 118.086,100.509 117.713,100.825 117.430 C 101.141 117.148,101.516 116.776,101.658 116.605 C 101.800 116.433,102.014 116.208,102.133 116.105 C 102.252 116.001,102.439 115.818,102.550 115.697 C 102.660 115.576,102.929 115.313,103.148 115.113 C 104.689 113.708,106.351 111.967,106.756 111.333 C 107.249 110.564,107.833 109.897,107.833 110.102 C 107.833 110.869,108.788 108.915,108.906 107.906 C 109.030 106.857,109.678 105.778,110.388 105.441 C 111.330 104.994,111.516 104.550,111.822 102.000 C 112.297 98.048,112.349 96.828,112.100 95.440 C 111.966 94.694,111.783 93.630,111.694 93.076 C 111.456 91.591,111.117 90.911,110.381 90.447 C 109.726 90.033,108.965 89.152,108.483 88.250 C 108.336 87.975,108.012 87.649,107.762 87.526 C 107.512 87.403,106.974 86.953,106.567 86.526 C 106.160 86.099,105.611 85.525,105.348 85.250 C 105.084 84.975,104.201 84.462,103.386 84.110 L 101.904 83.470 101.973 82.860 C 102.094 81.791,103.582 81.461,106.083 81.949 C 106.725 82.075,108.337 82.183,109.667 82.191 C 111.871 82.203,112.565 82.162,114.583 81.898 C 115.251 81.811,116.557 81.061,116.422 80.842 C 116.383 80.778,116.965 80.591,117.717 80.427 C 118.468 80.263,119.458 80.030,119.917 79.910 C 120.375 79.790,121.181 79.644,121.708 79.584 C 122.235 79.525,122.667 79.406,122.667 79.321 C 122.667 79.236,122.766 79.167,122.887 79.167 C 123.113 79.167,123.833 78.432,123.833 78.201 C 123.833 78.130,124.072 77.931,124.364 77.758 C 124.656 77.586,125.285 77.048,125.762 76.564 C 126.238 76.080,126.668 75.724,126.717 75.773 C 126.920 75.976,127.327 75.007,127.496 73.917 C 127.740 72.344,128.270 71.328,129.038 70.963 C 129.697 70.650,129.859 70.463,129.934 69.933 C 129.961 69.741,130.034 69.321,130.097 69.000 C 130.159 68.679,130.237 65.379,130.269 61.667 C 130.345 52.904,130.078 50.592,128.949 50.234 C 128.625 50.131,128.249 49.401,128.090 48.565 C 128.039 48.300,127.848 47.258,127.664 46.250 C 127.238 43.916,126.828 42.971,126.254 42.996 C 126.206 42.998,126.109 43.000,126.039 43.000 C 125.761 43.000,124.858 41.193,124.666 40.250 C 124.494 39.410,124.346 39.143,123.742 38.583 C 123.347 38.217,122.971 37.707,122.908 37.450 C 122.813 37.064,121.536 35.625,120.643 34.899 C 120.519 34.798,119.929 34.192,119.333 33.553 C 117.937 32.055,117.689 31.908,116.046 31.599 C 114.664 31.340,113.506 30.775,113.502 30.359 C 113.491 29.129,112.476 28.860,107.833 28.855 C 103.140 28.851,101.339 29.292,101.334 30.446 C 101.333 30.692,99.654 31.499,99.135 31.503 C 97.854 31.511,96.815 31.959,95.948 32.876 C 95.473 33.380,94.746 34.006,94.333 34.269 C 93.573 34.752,93.324 34.990,92.782 35.750 C 92.616 35.983,91.963 36.513,91.331 36.930 C 90.700 37.346,90.136 37.834,90.079 38.014 C 89.860 38.703,88.824 39.500,88.147 39.500 C 87.461 39.500,87.167 39.810,87.167 40.534 C 87.167 41.547,86.116 42.393,85.264 42.066 C 84.908 41.929,84.922 41.029,85.286 40.627 C 85.443 40.453,85.727 40.035,85.916 39.697 C 86.106 39.359,86.370 39.083,86.503 39.083 C 86.636 39.083,86.773 38.933,86.807 38.750 C 86.840 38.567,86.968 38.304,87.090 38.165 C 87.212 38.027,87.426 37.366,87.566 36.696 C 87.863 35.272,88.647 33.833,89.126 33.833 C 89.635 33.833,90.263 32.648,90.425 31.377 C 90.576 30.192,91.118 29.170,91.732 28.913 C 93.067 28.353,93.126 28.077,93.235 21.833 C 93.332 16.251,92.857 13.667,91.733 13.667 C 91.454 13.667,90.549 12.703,90.139 11.970 C 89.746 11.268,89.323 10.833,89.033 10.833 C 88.671 10.833,87.453 9.788,87.165 9.230 C 86.710 8.349,85.789 7.844,84.419 7.722 C 83.179 7.612,82.135 7.035,81.961 6.364 C 81.769 5.621,81.032 5.210,79.681 5.091 C 76.892 4.846,73.047 4.230,73.221 4.057 C 73.394 3.883,72.475 3.190,71.965 3.109 C 71.664 3.062,71.229 2.972,71.000 2.911 C 70.771 2.850,70.358 2.766,70.083 2.725 C 69.392 2.623,62.534 2.522,62.443 2.613 M67.338 4.503 C 68.114 4.596,70.137 4.856,71.833 5.080 C 73.529 5.305,75.835 5.607,76.957 5.752 C 79.306 6.056,79.956 6.287,80.966 7.175 C 81.693 7.816,82.361 8.121,83.899 8.515 C 84.504 8.669,85.022 8.996,85.899 9.777 C 86.551 10.357,87.146 10.831,87.222 10.832 C 87.369 10.833,89.243 12.688,89.667 13.251 C 89.804 13.434,90.350 14.096,90.879 14.722 C 92.391 16.512,92.389 16.505,92.392 20.833 C 92.395 25.290,92.226 26.199,91.126 27.656 C 90.394 28.626,89.771 29.988,89.578 31.043 C 89.500 31.467,89.199 31.949,88.646 32.539 C 87.870 33.364,87.498 34.099,86.988 35.807 C 86.869 36.205,86.551 36.767,86.282 37.054 C 86.014 37.342,85.396 38.181,84.911 38.919 C 84.425 39.656,83.755 40.520,83.422 40.838 C 82.672 41.555,82.127 42.472,81.742 43.667 C 81.580 44.171,81.215 44.872,80.932 45.225 C 80.351 45.950,80.286 46.527,80.510 48.977 C 80.699 51.054,81.102 51.075,82.089 49.058 C 82.406 48.410,82.699 48.071,83.139 47.845 C 84.047 47.378,84.567 46.741,85.325 45.167 C 85.810 44.160,86.224 43.565,86.754 43.112 C 87.164 42.761,87.500 42.404,87.500 42.319 C 87.500 41.694,88.273 40.618,88.981 40.257 C 89.763 39.858,90.385 39.273,90.882 38.470 C 91.034 38.225,91.619 37.778,92.182 37.479 C 92.744 37.179,93.427 36.656,93.700 36.317 C 93.972 35.978,94.920 35.214,95.806 34.618 C 96.692 34.022,97.623 33.301,97.876 33.017 C 98.129 32.733,98.392 32.499,98.460 32.497 C 99.594 32.471,102.716 31.351,103.711 30.613 C 105.396 29.365,110.229 29.611,112.382 31.054 C 113.553 31.840,114.488 32.243,115.530 32.411 C 115.931 32.476,116.428 32.768,116.971 33.255 C 117.426 33.665,117.871 34.000,117.960 34.000 C 118.049 34.000,118.450 34.368,118.852 34.817 C 120.198 36.322,120.444 36.580,121.064 37.136 C 121.403 37.440,121.869 38.115,122.099 38.636 C 122.330 39.157,122.691 39.771,122.903 40.000 C 123.115 40.229,123.722 41.260,124.252 42.291 C 124.783 43.322,125.459 44.448,125.755 44.795 C 126.362 45.503,126.693 46.377,127.001 48.083 C 127.391 50.241,127.690 51.243,128.369 52.667 C 130.106 56.309,129.950 66.215,128.102 69.652 C 127.588 70.607,127.044 71.845,126.892 72.402 C 126.537 73.702,126.412 73.944,125.684 74.738 C 124.305 76.241,123.716 76.780,123.115 77.089 C 122.766 77.269,122.153 77.686,121.753 78.016 C 120.851 78.759,118.789 79.291,114.667 79.843 C 113.979 79.935,112.854 80.087,112.167 80.181 C 109.899 80.489,105.837 80.331,103.619 79.848 C 103.181 79.753,102.431 79.633,101.953 79.582 C 101.474 79.531,100.446 79.384,99.667 79.254 C 98.888 79.125,97.425 78.937,96.417 78.838 C 95.408 78.738,94.303 78.624,93.961 78.583 C 93.287 78.504,91.911 77.938,91.487 77.565 C 90.898 77.047,89.147 76.498,87.673 76.368 L 86.173 76.237 84.906 76.870 C 84.210 77.218,83.528 77.615,83.392 77.751 C 83.255 77.888,83.063 78.000,82.966 78.000 C 82.130 78.000,85.161 79.405,86.384 79.585 C 86.769 79.642,87.196 79.708,87.333 79.733 C 87.471 79.758,87.943 79.838,88.383 79.910 C 88.823 79.981,89.292 80.149,89.425 80.282 C 89.558 80.415,89.667 80.471,89.667 80.406 C 89.667 80.341,89.814 80.476,89.994 80.704 C 90.745 81.659,93.922 82.373,98.833 82.691 C 99.258 82.719,99.621 82.919,100.167 83.429 C 100.581 83.816,101.653 84.487,102.561 84.927 C 103.937 85.594,104.400 85.927,105.395 86.963 C 106.048 87.644,106.752 88.266,106.958 88.346 C 107.163 88.426,107.589 88.887,107.903 89.371 C 108.217 89.854,108.964 90.802,109.563 91.476 C 110.787 92.853,110.901 93.124,111.169 95.281 C 111.626 98.966,111.011 102.623,109.651 104.304 C 109.184 104.881,108.499 106.004,108.127 106.801 C 107.756 107.598,107.349 108.311,107.224 108.385 C 107.098 108.459,106.778 108.948,106.514 109.473 C 106.249 109.997,105.721 110.724,105.340 111.088 C 104.959 111.452,104.445 111.968,104.199 112.235 C 102.997 113.535,101.999 114.500,101.856 114.500 C 101.769 114.500,101.428 114.876,101.097 115.336 C 100.767 115.796,100.194 116.377,99.825 116.628 C 99.456 116.878,98.808 117.360,98.385 117.697 C 97.670 118.269,96.365 118.833,95.760 118.833 C 95.617 118.833,95.500 118.921,95.500 119.028 C 95.500 119.135,95.452 119.175,95.394 119.116 C 95.336 119.058,94.942 119.370,94.519 119.811 C 93.669 120.695,92.561 121.410,91.167 121.972 C 90.662 122.176,89.987 122.575,89.667 122.860 C 88.893 123.547,88.344 123.761,86.750 124.000 C 86.017 124.110,84.404 124.410,83.167 124.666 C 79.157 125.497,78.348 125.489,73.917 124.571 C 72.396 124.256,71.038 123.523,70.173 122.551 C 69.862 122.202,68.961 121.241,68.170 120.416 C 66.808 118.995,66.708 118.839,66.288 117.492 C 66.014 116.615,65.587 115.711,65.174 115.133 C 64.264 113.863,64.241 113.782,63.841 110.481 C 63.370 106.589,62.925 104.136,62.421 102.650 C 61.849 100.966,61.646 99.224,61.522 94.917 L 61.417 91.250 60.622 90.856 C 59.751 90.424,59.173 90.515,58.572 91.179 C 57.875 91.949,58.432 103.469,59.338 107.017 C 60.012 109.658,60.019 109.791,59.553 111.167 C 59.320 111.854,58.989 112.647,58.819 112.929 C 58.649 113.210,58.323 114.137,58.095 114.989 C 57.624 116.751,57.529 116.920,56.340 118.133 C 55.863 118.619,55.328 119.347,55.150 119.749 C 54.825 120.482,54.145 121.167,53.739 121.167 C 53.621 121.167,53.425 121.261,53.304 121.376 C 50.995 123.569,49.718 124.000,45.533 124.000 C 41.071 124.000,38.285 123.598,37.417 122.830 C 36.997 122.458,34.405 121.572,33.083 121.348 C 31.683 121.110,30.930 120.809,30.389 120.268 C 29.775 119.654,29.286 119.414,27.826 119.009 C 27.158 118.824,26.422 118.502,26.190 118.295 C 25.959 118.087,25.465 117.631,25.093 117.282 C 24.721 116.932,23.854 116.373,23.167 116.039 C 22.479 115.704,21.626 115.175,21.270 114.863 C 20.915 114.551,20.304 114.154,19.912 113.981 C 19.521 113.808,18.964 113.385,18.674 113.041 C 17.743 111.935,17.569 111.758,16.980 111.312 C 16.661 111.070,16.153 110.408,15.850 109.840 C 15.547 109.271,15.086 108.564,14.826 108.267 C 14.566 107.971,14.044 107.096,13.666 106.323 C 13.288 105.549,12.872 104.729,12.742 104.500 C 12.612 104.271,12.504 103.971,12.502 103.833 C 12.501 103.696,12.319 103.373,12.098 103.116 C 10.785 101.590,10.975 95.166,12.374 93.767 C 12.935 93.206,13.605 91.892,13.769 91.029 C 13.834 90.692,14.178 90.157,14.646 89.668 C 15.070 89.225,15.748 88.474,16.153 87.998 C 16.559 87.523,17.067 87.053,17.284 86.954 C 17.500 86.856,17.933 86.419,18.246 85.984 C 18.668 85.396,19.086 85.063,19.875 84.687 C 20.459 84.408,21.269 83.915,21.676 83.592 C 22.084 83.268,22.477 83.003,22.550 83.002 C 22.969 82.997,26.008 81.393,26.500 80.918 C 26.941 80.491,27.409 80.267,28.417 80.000 C 29.150 79.805,30.078 79.463,30.479 79.239 C 30.880 79.016,31.286 78.833,31.381 78.833 C 31.476 78.833,31.748 78.619,31.985 78.357 C 32.610 77.668,32.933 77.544,34.418 77.423 C 37.457 77.177,40.000 76.063,40.000 74.977 C 40.000 74.910,40.169 74.804,40.375 74.740 C 40.581 74.676,41.112 74.240,41.555 73.770 L 42.360 72.917 41.760 72.396 L 41.160 71.875 40.038 72.104 C 39.421 72.229,38.754 72.370,38.555 72.416 C 38.355 72.462,37.961 72.731,37.678 73.014 C 37.141 73.551,35.489 73.981,33.905 73.994 C 32.803 74.004,31.593 74.455,30.530 75.254 C 29.653 75.913,29.330 76.044,27.824 76.351 C 25.492 76.827,24.904 77.059,24.058 77.839 C 23.169 78.659,22.829 78.794,21.384 78.907 C 19.854 79.026,12.939 79.028,12.371 78.909 C 10.397 78.497,10.006 78.287,8.456 76.805 C 8.008 76.377,7.392 75.907,7.086 75.762 C 6.525 75.496,5.370 73.573,5.105 72.464 C 5.045 72.216,4.724 71.547,4.391 70.979 C 2.760 68.195,2.572 55.141,4.123 52.361 C 4.584 51.535,5.208 49.204,5.492 47.250 C 6.017 43.634,6.138 43.212,6.834 42.583 C 7.429 42.045,8.094 40.492,8.665 38.306 C 8.785 37.850,9.074 37.333,9.366 37.056 C 9.639 36.796,10.152 36.096,10.506 35.500 C 10.859 34.904,11.490 34.045,11.908 33.590 C 12.325 33.136,12.667 32.710,12.667 32.643 C 12.667 32.577,12.798 32.477,12.958 32.423 C 13.119 32.368,13.512 31.979,13.833 31.559 C 14.154 31.139,14.944 30.401,15.589 29.918 C 16.234 29.435,17.127 28.684,17.574 28.250 C 18.837 27.023,20.270 26.665,23.912 26.668 C 27.681 26.671,29.102 27.008,30.472 28.225 C 31.176 28.851,31.631 29.083,32.961 29.496 C 34.247 29.896,34.675 30.109,35.002 30.515 C 35.423 31.037,36.625 31.884,37.787 32.476 C 38.287 32.732,38.626 33.139,39.336 34.338 C 39.836 35.182,40.565 36.207,40.955 36.615 C 41.346 37.023,41.706 37.558,41.756 37.803 C 42.155 39.793,42.743 41.070,43.714 42.057 C 44.278 42.629,44.493 43.031,44.803 44.093 C 45.159 45.309,45.278 45.502,46.278 46.471 C 46.877 47.051,47.382 47.614,47.402 47.721 C 47.421 47.829,47.482 48.067,47.536 48.250 C 47.591 48.433,47.686 48.808,47.748 49.083 C 47.856 49.562,48.532 50.335,50.741 52.501 C 51.995 53.731,53.231 53.998,53.440 53.083 C 53.752 51.714,53.258 50.399,51.953 49.128 C 51.002 48.201,50.227 47.220,49.841 46.457 C 49.602 45.984,49.354 45.708,48.714 45.207 C 48.452 45.002,48.272 44.564,48.098 43.713 C 47.784 42.171,47.504 41.595,46.576 40.584 C 46.161 40.133,45.790 39.610,45.751 39.423 C 45.712 39.236,45.563 38.485,45.419 37.753 C 45.164 36.454,44.545 35.238,44.040 35.044 C 43.754 34.934,43.245 33.913,43.105 33.167 C 42.899 32.073,41.632 28.918,41.222 28.481 C 39.656 26.809,39.448 15.379,40.965 14.369 C 41.859 13.774,42.595 12.862,42.958 11.899 C 43.239 11.154,43.468 10.829,43.875 10.597 C 44.173 10.427,44.717 10.010,45.083 9.671 C 45.450 9.331,46.125 8.917,46.583 8.751 C 47.908 8.270,49.597 7.366,50.171 6.829 C 50.827 6.216,51.753 5.893,53.256 5.753 C 55.886 5.508,60.516 4.938,63.333 4.512 C 64.655 4.313,65.733 4.310,67.338 4.503 M309.708 19.948 C 309.869 19.990,310.131 19.990,310.292 19.948 C 310.452 19.906,310.321 19.872,310.000 19.872 C 309.679 19.872,309.548 19.906,309.708 19.948 M393.960 19.951 C 394.168 19.991,394.468 19.990,394.627 19.948 C 394.786 19.906,394.617 19.874,394.250 19.875 C 393.883 19.877,393.753 19.911,393.960 19.951 M44.179 37.524 C 44.584 38.318,44.518 39.402,44.026 40.009 C 43.738 40.364,43.736 40.363,43.269 39.505 C 42.739 38.532,42.762 37.819,43.342 37.196 C 43.781 36.724,43.768 36.719,44.179 37.524 M46.843 43.019 C 47.221 43.759,47.186 44.180,46.694 44.810 L 46.388 45.203 46.027 44.592 C 45.532 43.753,45.619 42.925,46.250 42.461 C 46.484 42.289,46.458 42.264,46.843 43.019 M84.679 42.492 C 84.848 43.792,84.833 43.878,84.221 45.011 C 83.534 46.283,83.454 46.339,83.096 45.792 C 82.204 44.429,82.833 42.278,84.099 42.363 C 84.411 42.384,84.672 42.442,84.679 42.492 M321.872 44.500 C 321.872 44.821,321.906 44.952,321.948 44.792 C 321.990 44.631,321.990 44.369,321.948 44.208 C 321.906 44.048,321.872 44.179,321.872 44.500 M49.452 48.862 C 49.666 49.108,49.657 49.160,49.373 49.312 C 48.880 49.576,48.653 49.255,48.878 48.611 C 48.992 48.284,49.087 48.183,49.134 48.338 C 49.176 48.473,49.319 48.709,49.452 48.862 M52.429 51.554 C 52.520 51.828,52.108 52.501,51.849 52.499 C 51.292 52.495,50.806 51.703,51.059 51.214 C 51.493 50.374,52.085 50.521,52.429 51.554 M77.980 52.125 C 77.969 52.377,77.970 52.642,77.982 52.713 C 78.035 53.039,77.457 53.835,77.122 53.898 C 75.501 54.202,75.455 54.227,75.222 54.917 C 75.098 55.283,74.948 55.696,74.890 55.833 C 74.357 57.083,74.466 58.065,75.142 58.120 C 75.858 58.178,76.826 57.290,76.846 56.558 C 76.853 56.297,76.883 55.956,76.913 55.801 C 76.974 55.487,77.500 54.679,77.500 54.900 C 77.500 54.977,77.612 54.947,77.750 54.833 C 77.887 54.719,78.000 54.684,78.000 54.755 C 78.000 55.228,78.655 54.163,78.753 53.532 C 79.020 51.814,78.998 51.667,78.474 51.667 C 78.073 51.667,77.997 51.737,77.980 52.125 M53.833 53.323 C 53.833 53.431,53.770 53.480,53.692 53.432 C 53.614 53.384,53.580 54.111,53.617 55.047 C 53.694 57.003,53.863 57.381,54.837 57.771 C 55.412 58.001,55.539 58.155,55.847 59.002 C 56.042 59.534,56.405 60.166,56.656 60.406 L 57.111 60.842 57.556 60.491 C 58.309 59.899,58.363 59.644,57.979 58.476 C 57.548 57.162,57.213 56.500,56.978 56.500 C 56.577 56.500,55.519 55.458,55.259 54.806 C 54.993 54.142,54.333 53.150,54.333 53.415 C 54.333 53.484,54.221 53.447,54.083 53.333 C 53.897 53.179,53.833 53.176,53.833 53.323 M321.875 55.250 C 321.877 55.617,321.911 55.747,321.951 55.540 C 321.991 55.332,321.990 55.032,321.948 54.873 C 321.906 54.714,321.874 54.883,321.875 55.250 M73.052 58.333 C 71.667 58.716,71.304 60.339,72.436 61.081 C 73.224 61.597,74.339 60.433,74.417 59.014 C 74.461 58.209,74.119 58.038,73.052 58.333 M57.293 59.790 C 57.041 60.108,56.833 59.872,56.833 59.268 C 56.833 58.497,57.041 58.383,57.266 59.032 C 57.392 59.396,57.401 59.653,57.293 59.790 M73.136 59.935 C 72.889 60.182,72.859 60.176,72.756 59.853 C 72.592 59.337,72.813 59.075,73.139 59.401 C 73.382 59.644,73.382 59.689,73.136 59.935 M69.962 62.114 C 69.692 62.185,69.692 62.216,69.951 62.613 C 70.212 63.011,70.241 63.018,70.448 62.736 C 70.884 62.139,70.711 61.918,69.962 62.114 M72.343 69.908 C 71.553 70.182,71.556 70.368,72.354 70.704 C 72.891 70.930,73.113 70.951,73.391 70.803 C 73.746 70.612,74.254 70.167,74.116 70.167 C 74.074 70.167,73.788 70.064,73.479 69.938 C 73.029 69.755,72.802 69.749,72.343 69.908 M50.956 70.058 C 50.681 70.275,50.693 70.303,51.122 70.475 C 51.651 70.687,52.084 70.650,52.366 70.368 C 52.773 69.960,51.449 69.669,50.956 70.058 M36.600 75.276 L 37.021 75.552 36.386 75.773 C 35.544 76.065,33.214 76.093,32.614 75.818 L 32.145 75.603 32.697 75.309 C 33.462 74.901,35.995 74.880,36.600 75.276 M77.643 75.328 C 77.387 75.541,77.333 75.658,77.487 75.661 C 77.617 75.664,77.857 75.788,78.021 75.935 C 78.297 76.186,78.325 76.175,78.424 75.778 C 78.621 74.997,78.278 74.799,77.643 75.328 M28.696 77.424 C 29.874 77.704,29.782 78.220,28.450 78.798 C 27.635 79.152,26.124 78.877,25.826 78.320 C 25.659 78.007,27.476 77.114,28.000 77.252 C 28.137 77.288,28.451 77.365,28.696 77.424 M87.667 77.672 C 89.251 78.018,89.225 78.008,89.026 78.208 C 88.814 78.420,88.832 78.416,87.314 78.570 C 86.438 78.660,86.086 78.623,85.599 78.391 L 84.987 78.099 85.535 77.806 C 86.165 77.470,86.614 77.442,87.667 77.672 M98.667 80.250 C 99.537 80.475,100.456 80.661,100.708 80.663 C 101.466 80.669,101.225 80.972,100.375 81.083 C 99.940 81.139,99.246 81.254,98.833 81.338 C 96.837 81.742,95.188 81.630,93.274 80.959 L 92.632 80.733 93.274 80.449 C 94.792 79.779,96.591 79.713,98.667 80.250 M60.167 94.133 C 60.315 98.802,59.892 103.680,59.564 101.083 C 59.384 99.657,59.372 91.874,59.550 91.430 C 59.873 90.623,60.084 91.550,60.167 94.133 " stroke="none" fill="#239397" fill-rule="evenodd"></path><path id="path4" d="M63.333 4.512 C 60.516 4.938,55.886 5.508,53.256 5.753 C 51.753 5.893,50.827 6.216,50.171 6.829 C 49.597 7.366,47.908 8.270,46.583 8.751 C 46.125 8.917,45.450 9.331,45.083 9.671 C 44.717 10.010,44.173 10.427,43.875 10.597 C 43.468 10.829,43.239 11.154,42.958 11.899 C 42.595 12.862,41.859 13.774,40.965 14.369 C 39.448 15.379,39.656 26.809,41.222 28.481 C 41.632 28.918,42.899 32.073,43.105 33.167 C 43.245 33.913,43.754 34.934,44.040 35.044 C 44.545 35.238,45.164 36.454,45.419 37.753 C 45.563 38.485,45.712 39.236,45.751 39.423 C 45.790 39.610,46.161 40.133,46.576 40.584 C 47.504 41.595,47.784 42.171,48.098 43.713 C 48.272 44.564,48.452 45.002,48.714 45.207 C 49.354 45.708,49.602 45.984,49.841 46.457 C 50.227 47.220,51.002 48.201,51.953 49.128 C 53.258 50.399,53.752 51.714,53.440 53.083 C 53.231 53.998,51.995 53.731,50.741 52.501 C 48.532 50.335,47.856 49.562,47.748 49.083 C 47.686 48.808,47.591 48.433,47.536 48.250 C 47.482 48.067,47.421 47.829,47.402 47.721 C 47.382 47.614,46.877 47.051,46.278 46.471 C 45.278 45.502,45.159 45.309,44.803 44.093 C 44.493 43.031,44.278 42.629,43.714 42.057 C 42.743 41.070,42.155 39.793,41.756 37.803 C 41.706 37.558,41.346 37.023,40.955 36.615 C 40.565 36.207,39.836 35.182,39.336 34.338 C 38.626 33.139,38.287 32.732,37.787 32.476 C 36.625 31.884,35.423 31.037,35.002 30.515 C 34.675 30.109,34.247 29.896,32.961 29.496 C 31.631 29.083,31.176 28.851,30.472 28.225 C 29.102 27.008,27.681 26.671,23.912 26.668 C 20.270 26.665,18.837 27.023,17.574 28.250 C 17.127 28.684,16.234 29.435,15.589 29.918 C 14.944 30.401,14.154 31.139,13.833 31.559 C 13.512 31.979,13.119 32.368,12.958 32.423 C 12.798 32.477,12.667 32.577,12.667 32.643 C 12.667 32.710,12.325 33.136,11.908 33.590 C 11.490 34.045,10.859 34.904,10.506 35.500 C 10.152 36.096,9.639 36.796,9.366 37.056 C 9.074 37.333,8.785 37.850,8.665 38.306 C 8.094 40.492,7.429 42.045,6.834 42.583 C 6.138 43.212,6.017 43.634,5.492 47.250 C 5.208 49.204,4.584 51.535,4.123 52.361 C 2.572 55.141,2.760 68.195,4.391 70.979 C 4.724 71.547,5.045 72.216,5.105 72.464 C 5.370 73.573,6.525 75.496,7.086 75.762 C 7.392 75.907,8.008 76.377,8.456 76.805 C 10.006 78.287,10.397 78.497,12.371 78.909 C 12.939 79.028,19.854 79.026,21.384 78.907 C 22.829 78.794,23.169 78.659,24.058 77.839 C 24.904 77.059,25.492 76.827,27.824 76.351 C 29.330 76.044,29.653 75.913,30.530 75.254 C 31.593 74.455,32.803 74.004,33.905 73.994 C 35.489 73.981,37.141 73.551,37.678 73.014 C 37.961 72.731,38.355 72.462,38.555 72.416 C 38.754 72.370,39.421 72.229,40.038 72.104 L 41.160 71.875 41.760 72.396 L 42.360 72.917 41.555 73.770 C 41.112 74.240,40.581 74.676,40.375 74.740 C 40.169 74.804,40.000 74.910,40.000 74.977 C 40.000 76.063,37.457 77.177,34.418 77.423 C 32.933 77.544,32.610 77.668,31.985 78.357 C 31.748 78.619,31.476 78.833,31.381 78.833 C 31.286 78.833,30.880 79.016,30.479 79.239 C 30.078 79.463,29.150 79.805,28.417 80.000 C 27.409 80.267,26.941 80.491,26.500 80.918 C 26.008 81.393,22.969 82.997,22.550 83.002 C 22.477 83.003,22.084 83.268,21.676 83.592 C 21.269 83.915,20.459 84.408,19.875 84.687 C 19.086 85.063,18.668 85.396,18.246 85.984 C 17.933 86.419,17.500 86.856,17.284 86.954 C 17.067 87.053,16.559 87.523,16.153 87.998 C 15.748 88.474,15.070 89.225,14.646 89.668 C 14.178 90.157,13.834 90.692,13.769 91.029 C 13.605 91.892,12.935 93.206,12.374 93.767 C 10.975 95.166,10.785 101.590,12.098 103.116 C 12.319 103.373,12.501 103.696,12.502 103.833 C 12.504 103.971,12.612 104.271,12.742 104.500 C 12.872 104.729,13.288 105.549,13.666 106.323 C 14.044 107.096,14.566 107.971,14.826 108.267 C 15.086 108.564,15.547 109.271,15.850 109.840 C 16.153 110.408,16.661 111.070,16.980 111.312 C 17.569 111.758,17.743 111.935,18.674 113.041 C 18.964 113.385,19.521 113.808,19.912 113.981 C 20.304 114.154,20.915 114.551,21.270 114.863 C 21.626 115.175,22.479 115.704,23.167 116.039 C 23.854 116.373,24.721 116.932,25.093 117.282 C 25.465 117.631,25.959 118.087,26.190 118.295 C 26.422 118.502,27.158 118.824,27.826 119.009 C 29.286 119.414,29.775 119.654,30.389 120.268 C 30.930 120.809,31.683 121.110,33.083 121.348 C 34.405 121.572,36.997 122.458,37.417 122.830 C 38.285 123.598,41.071 124.000,45.533 124.000 C 49.718 124.000,50.995 123.569,53.304 121.376 C 53.425 121.261,53.621 121.167,53.739 121.167 C 54.145 121.167,54.825 120.482,55.150 119.749 C 55.328 119.347,55.863 118.619,56.340 118.133 C 57.529 116.920,57.624 116.751,58.095 114.989 C 58.323 114.137,58.649 113.210,58.819 112.929 C 58.989 112.647,59.320 111.854,59.553 111.167 C 60.019 109.791,60.012 109.658,59.338 107.017 C 58.432 103.469,57.875 91.949,58.572 91.179 C 59.173 90.515,59.751 90.424,60.622 90.856 L 61.417 91.250 61.522 94.917 C 61.646 99.224,61.849 100.966,62.421 102.650 C 62.925 104.136,63.370 106.589,63.841 110.481 C 64.241 113.782,64.264 113.863,65.174 115.133 C 65.587 115.711,66.014 116.615,66.288 117.492 C 66.708 118.839,66.808 118.995,68.170 120.416 C 68.961 121.241,69.862 122.202,70.173 122.551 C 71.038 123.523,72.396 124.256,73.917 124.571 C 78.348 125.489,79.157 125.497,83.167 124.666 C 84.404 124.410,86.017 124.110,86.750 124.000 C 88.344 123.761,88.893 123.547,89.667 122.860 C 89.987 122.575,90.662 122.176,91.167 121.972 C 92.561 121.410,93.669 120.695,94.519 119.811 C 94.942 119.370,95.336 119.058,95.394 119.116 C 95.452 119.175,95.500 119.135,95.500 119.028 C 95.500 118.921,95.617 118.833,95.760 118.833 C 96.365 118.833,97.670 118.269,98.385 117.697 C 98.808 117.360,99.456 116.878,99.825 116.628 C 100.194 116.377,100.767 115.796,101.097 115.336 C 101.428 114.876,101.769 114.500,101.856 114.500 C 101.999 114.500,102.997 113.535,104.199 112.235 C 104.445 111.968,104.959 111.452,105.340 111.088 C 105.721 110.724,106.249 109.997,106.514 109.473 C 106.778 108.948,107.098 108.459,107.224 108.385 C 107.349 108.311,107.756 107.598,108.127 106.801 C 108.499 106.004,109.184 104.881,109.651 104.304 C 111.011 102.623,111.626 98.966,111.169 95.281 C 110.901 93.124,110.787 92.853,109.563 91.476 C 108.964 90.802,108.217 89.854,107.903 89.371 C 107.589 88.887,107.163 88.426,106.958 88.346 C 106.752 88.266,106.048 87.644,105.395 86.963 C 104.400 85.927,103.937 85.594,102.561 84.927 C 101.653 84.487,100.581 83.816,100.167 83.429 C 99.621 82.919,99.258 82.719,98.833 82.691 C 93.922 82.373,90.745 81.659,89.994 80.704 C 89.814 80.476,89.667 80.341,89.667 80.406 C 89.667 80.471,89.558 80.415,89.425 80.282 C 89.292 80.149,88.823 79.981,88.383 79.910 C 87.943 79.838,87.471 79.758,87.333 79.733 C 87.196 79.708,86.769 79.642,86.384 79.585 C 85.161 79.405,82.130 78.000,82.966 78.000 C 83.063 78.000,83.255 77.888,83.392 77.751 C 83.528 77.615,84.210 77.218,84.906 76.870 L 86.173 76.237 87.673 76.368 C 89.147 76.498,90.898 77.047,91.487 77.565 C 91.911 77.938,93.287 78.504,93.961 78.583 C 94.303 78.624,95.408 78.738,96.417 78.838 C 97.425 78.937,98.888 79.125,99.667 79.254 C 100.446 79.384,101.474 79.531,101.953 79.582 C 102.431 79.633,103.181 79.753,103.619 79.848 C 105.837 80.331,109.899 80.489,112.167 80.181 C 112.854 80.087,113.979 79.935,114.667 79.843 C 118.789 79.291,120.851 78.759,121.753 78.016 C 122.153 77.686,122.766 77.269,123.115 77.089 C 123.716 76.780,124.305 76.241,125.684 74.738 C 126.412 73.944,126.537 73.702,126.892 72.402 C 127.044 71.845,127.588 70.607,128.102 69.652 C 129.950 66.215,130.106 56.309,128.369 52.667 C 127.690 51.243,127.391 50.241,127.001 48.083 C 126.693 46.377,126.362 45.503,125.755 44.795 C 125.459 44.448,124.783 43.322,124.252 42.291 C 123.722 41.260,123.115 40.229,122.903 40.000 C 122.691 39.771,122.330 39.157,122.099 38.636 C 121.869 38.115,121.403 37.440,121.064 37.136 C 120.444 36.580,120.198 36.322,118.852 34.817 C 118.450 34.368,118.049 34.000,117.960 34.000 C 117.871 34.000,117.426 33.665,116.971 33.255 C 116.428 32.768,115.931 32.476,115.530 32.411 C 114.488 32.243,113.553 31.840,112.382 31.054 C 110.229 29.611,105.396 29.365,103.711 30.613 C 102.716 31.351,99.594 32.471,98.460 32.497 C 98.392 32.499,98.129 32.733,97.876 33.017 C 97.623 33.301,96.692 34.022,95.806 34.618 C 94.920 35.214,93.972 35.978,93.700 36.317 C 93.427 36.656,92.744 37.179,92.182 37.479 C 91.619 37.778,91.034 38.225,90.882 38.470 C 90.385 39.273,89.763 39.858,88.981 40.257 C 88.273 40.618,87.500 41.694,87.500 42.319 C 87.500 42.404,87.164 42.761,86.754 43.112 C 86.224 43.565,85.810 44.160,85.325 45.167 C 84.567 46.741,84.047 47.378,83.139 47.845 C 82.699 48.071,82.406 48.410,82.089 49.058 C 81.102 51.075,80.699 51.054,80.510 48.977 C 80.286 46.527,80.351 45.950,80.932 45.225 C 81.215 44.872,81.580 44.171,81.742 43.667 C 82.127 42.472,82.672 41.555,83.422 40.838 C 83.755 40.520,84.425 39.656,84.911 38.919 C 85.396 38.181,86.014 37.342,86.282 37.054 C 86.551 36.767,86.869 36.205,86.988 35.807 C 87.498 34.099,87.870 33.364,88.646 32.539 C 89.199 31.949,89.500 31.467,89.578 31.043 C 89.771 29.988,90.394 28.626,91.126 27.656 C 92.226 26.199,92.395 25.290,92.392 20.833 C 92.389 16.505,92.391 16.512,90.879 14.722 C 90.350 14.096,89.804 13.434,89.667 13.251 C 89.243 12.688,87.369 10.833,87.222 10.832 C 87.146 10.831,86.551 10.357,85.899 9.777 C 85.022 8.996,84.504 8.669,83.899 8.515 C 82.361 8.121,81.693 7.816,80.966 7.175 C 79.956 6.287,79.306 6.056,76.957 5.752 C 75.835 5.607,73.529 5.305,71.833 5.080 C 65.648 4.261,65.196 4.231,63.333 4.512 M73.333 6.167 C 74.071 6.199,76.783 6.445,77.738 6.566 C 78.006 6.600,78.324 6.767,78.444 6.939 C 79.237 8.068,80.617 8.736,82.583 8.941 C 83.807 9.068,84.288 9.295,84.415 9.806 C 84.570 10.426,84.939 10.789,85.645 11.014 C 86.301 11.223,87.167 11.937,87.167 12.268 C 87.167 12.581,87.968 13.468,88.365 13.593 C 88.772 13.723,89.487 14.485,89.495 14.798 C 89.509 15.369,90.211 16.349,90.833 16.666 C 91.581 17.048,91.607 17.120,91.741 19.250 C 91.977 23.007,91.420 25.750,90.421 25.750 C 90.327 25.750,90.247 25.825,90.244 25.917 C 90.241 26.008,90.155 26.233,90.054 26.417 C 89.782 26.908,89.167 29.057,89.166 29.518 C 89.163 30.492,88.840 31.139,88.259 31.330 C 87.433 31.603,86.709 33.054,86.416 35.022 C 86.332 35.587,86.204 35.839,85.938 35.960 C 85.227 36.284,84.519 37.020,84.333 37.630 C 84.018 38.660,83.786 39.016,83.256 39.283 C 82.625 39.601,81.833 40.330,81.833 40.593 C 81.833 40.702,81.690 41.119,81.514 41.520 C 81.338 41.922,81.144 42.590,81.084 43.005 C 80.997 43.600,80.872 43.817,80.497 44.033 C 79.766 44.452,79.581 45.366,79.811 47.417 C 80.095 49.946,79.735 51.000,78.586 51.000 C 78.073 51.000,77.163 51.650,76.835 52.250 C 76.685 52.525,76.226 52.938,75.816 53.167 C 74.497 53.904,74.399 54.026,73.899 55.564 C 73.458 56.920,73.367 57.066,72.833 57.296 C 72.512 57.433,72.096 57.616,71.907 57.701 C 71.506 57.882,71.071 58.677,70.929 59.489 C 70.809 60.181,70.402 60.667,69.943 60.667 C 69.042 60.667,67.201 62.095,67.831 62.305 C 68.315 62.466,69.279 63.522,69.726 64.380 C 70.413 65.700,71.026 65.421,72.167 63.270 C 72.550 62.546,72.852 62.169,73.047 62.168 C 74.090 62.163,74.892 61.393,75.229 60.071 C 75.402 59.392,75.502 59.273,76.057 59.082 C 76.951 58.775,77.301 58.400,77.584 57.445 C 77.845 56.567,78.242 56.000,78.596 56.000 C 79.052 56.000,79.818 55.132,80.093 54.303 C 80.273 53.761,80.689 53.110,81.233 52.517 C 82.467 51.170,82.808 50.637,82.933 49.852 C 83.043 49.164,83.613 48.500,84.093 48.500 C 84.593 48.500,85.337 47.622,85.598 46.723 C 85.802 46.022,86.055 45.628,86.682 45.036 C 87.132 44.612,87.500 44.203,87.500 44.129 C 87.500 44.054,87.694 43.700,87.931 43.342 C 88.168 42.984,88.453 42.333,88.565 41.896 C 88.760 41.129,88.796 41.093,89.592 40.890 C 90.276 40.716,90.600 40.485,91.500 39.526 C 92.230 38.749,93.006 38.138,93.881 37.653 C 94.898 37.089,95.282 36.767,95.654 36.161 C 95.952 35.678,96.323 35.317,96.648 35.195 C 96.933 35.088,97.384 34.919,97.650 34.820 C 98.213 34.611,98.695 34.119,99.020 33.426 C 99.243 32.950,99.315 32.925,101.333 32.621 C 102.479 32.448,104.354 32.094,105.500 31.835 C 107.793 31.316,108.729 31.350,110.631 32.022 C 111.116 32.193,111.698 32.333,111.925 32.333 C 112.153 32.333,112.768 32.443,113.294 32.578 C 113.820 32.712,114.513 32.865,114.833 32.917 C 115.317 32.996,115.473 33.132,115.750 33.714 C 116.074 34.398,116.247 34.524,117.833 35.234 C 118.063 35.336,118.400 35.728,118.583 36.104 C 119.053 37.069,119.318 37.344,120.123 37.701 C 120.927 38.057,121.081 38.283,121.233 39.334 C 121.368 40.267,122.164 41.690,122.807 42.148 C 123.266 42.475,123.497 42.938,124.241 45.029 C 124.425 45.548,124.754 46.001,125.225 46.387 C 125.984 47.009,126.222 47.742,126.404 50.012 C 126.445 50.522,126.520 51.122,126.570 51.345 C 126.620 51.568,126.694 52.050,126.734 52.417 C 126.842 53.401,127.612 55.619,128.210 56.667 L 128.733 57.583 128.741 61.345 L 128.750 65.107 128.266 65.845 C 128.000 66.251,127.685 66.642,127.565 66.713 C 127.445 66.784,127.390 66.953,127.441 67.088 C 127.493 67.223,127.469 67.333,127.387 67.333 C 127.305 67.333,127.225 67.501,127.210 67.706 C 127.194 67.911,127.103 68.105,127.006 68.137 C 126.910 68.169,126.874 68.264,126.925 68.348 C 126.977 68.431,126.963 68.592,126.893 68.704 C 126.824 68.817,126.739 69.206,126.705 69.570 C 126.671 69.934,126.581 70.348,126.505 70.491 C 126.429 70.633,126.313 71.200,126.246 71.750 C 126.107 72.899,125.924 73.333,125.578 73.333 C 125.324 73.333,123.999 74.448,124.025 74.640 C 124.122 75.367,123.582 75.918,122.623 76.071 C 122.244 76.132,121.836 76.262,121.717 76.361 C 121.597 76.460,121.500 76.488,121.500 76.424 C 121.500 76.359,121.082 76.706,120.571 77.195 C 119.093 78.607,117.884 78.760,108.333 78.737 C 101.879 78.721,98.720 78.432,98.042 77.794 C 97.836 77.601,97.667 77.492,97.667 77.554 C 97.667 77.616,97.511 77.511,97.320 77.320 C 97.130 77.130,96.870 77.014,96.742 77.063 C 96.615 77.112,96.466 77.080,96.412 76.993 C 96.358 76.905,96.168 76.833,95.990 76.833 C 95.812 76.833,95.667 76.758,95.667 76.667 C 95.667 76.575,95.535 76.498,95.375 76.495 C 95.215 76.492,94.708 76.305,94.250 76.080 C 93.792 75.854,93.285 75.669,93.125 75.668 C 92.965 75.667,92.833 75.592,92.833 75.500 C 92.833 75.408,92.748 75.333,92.643 75.333 C 92.539 75.333,92.354 75.202,92.232 75.042 C 92.062 74.818,92.009 74.806,92.005 74.990 C 92.001 75.166,91.929 75.143,91.738 74.907 C 91.593 74.729,91.530 74.689,91.597 74.817 C 91.686 74.989,91.655 75.012,91.484 74.905 C 91.147 74.695,90.864 74.640,89.833 74.585 C 89.329 74.557,88.898 74.518,88.875 74.497 C 88.852 74.476,88.765 74.449,88.681 74.438 C 88.597 74.426,88.472 74.360,88.403 74.292 C 88.334 74.223,88.140 74.167,87.972 74.167 C 87.804 74.167,87.667 74.092,87.667 74.000 C 87.667 73.908,87.550 73.833,87.407 73.833 C 87.253 73.833,87.195 73.755,87.266 73.641 C 87.340 73.522,87.312 73.494,87.193 73.567 C 87.002 73.685,86.399 73.366,86.356 73.125 C 86.319 72.920,86.085 72.987,86.061 73.210 C 86.049 73.324,86.021 73.492,85.999 73.583 C 85.978 73.675,85.969 73.806,85.980 73.875 C 85.991 73.944,85.925 74.000,85.833 74.000 C 85.742 74.000,85.676 74.056,85.686 74.125 C 85.751 74.534,85.645 74.839,85.474 74.734 C 85.355 74.660,85.327 74.688,85.402 74.809 C 85.642 75.199,85.333 75.623,84.738 75.720 C 84.393 75.776,83.795 76.110,83.284 76.532 C 82.807 76.927,82.342 77.306,82.250 77.375 C 82.158 77.444,81.896 77.644,81.667 77.820 L 81.250 78.141 81.667 78.307 C 81.896 78.399,82.449 78.781,82.896 79.156 C 83.342 79.531,83.867 79.873,84.062 79.917 C 84.257 79.961,85.102 80.143,85.940 80.320 C 87.331 80.616,87.531 80.709,88.231 81.389 C 89.295 82.424,90.037 82.626,94.158 83.010 C 97.727 83.342,97.734 83.343,98.158 83.829 C 98.691 84.439,100.370 85.311,101.250 85.435 C 102.240 85.574,102.932 85.988,103.234 86.621 C 103.382 86.930,103.745 87.311,104.042 87.467 C 104.339 87.623,104.901 88.087,105.291 88.500 C 106.063 89.315,106.816 90.076,107.555 90.785 C 107.814 91.034,108.189 91.578,108.388 91.994 C 108.661 92.563,108.924 92.832,109.456 93.083 C 110.439 93.548,110.520 93.946,110.437 97.944 C 110.364 101.466,110.259 102.333,109.902 102.333 C 109.497 102.333,108.524 103.338,108.320 103.967 C 108.209 104.306,108.017 104.731,107.893 104.912 C 107.768 105.093,107.667 105.365,107.667 105.517 C 107.667 105.669,107.300 106.177,106.852 106.647 C 105.986 107.555,105.516 108.381,105.382 109.230 C 105.254 110.046,105.030 110.332,104.264 110.661 C 103.552 110.966,102.833 111.686,102.833 112.093 C 102.833 112.394,102.000 113.353,101.830 113.248 C 101.753 113.200,101.642 113.239,101.583 113.333 C 101.525 113.428,101.407 113.462,101.322 113.410 C 101.236 113.357,101.167 113.393,101.167 113.490 C 101.167 113.587,101.047 113.667,100.901 113.667 C 100.755 113.667,100.596 113.817,100.548 114.000 C 100.500 114.183,100.382 114.333,100.286 114.333 C 100.190 114.333,100.160 114.383,100.221 114.443 C 100.281 114.503,100.247 114.653,100.145 114.776 C 100.043 114.899,100.019 115.000,100.092 115.000 C 100.540 115.000,99.291 115.871,98.522 116.094 C 97.643 116.350,97.371 116.555,96.583 117.560 C 96.400 117.793,96.100 117.989,95.917 117.994 C 95.733 117.999,95.182 118.190,94.692 118.418 C 94.201 118.647,93.714 118.835,93.608 118.837 C 93.503 118.839,93.192 119.110,92.917 119.439 C 91.813 120.760,91.550 120.948,90.657 121.053 C 89.601 121.178,88.198 121.938,87.750 122.628 C 87.567 122.910,87.267 123.183,87.083 123.235 C 85.131 123.792,73.938 123.913,72.580 123.392 C 72.437 123.337,72.173 123.005,71.994 122.655 C 71.673 122.027,71.489 121.856,70.333 121.113 C 70.012 120.907,69.611 120.441,69.441 120.077 C 69.011 119.157,68.730 118.882,68.098 118.764 C 67.424 118.637,67.258 118.303,67.007 116.567 C 66.742 114.735,66.241 113.633,65.471 113.191 C 64.688 112.739,64.583 112.111,64.583 107.833 C 64.583 104.294,64.723 102.273,65.050 101.083 C 65.176 100.625,65.267 100.081,65.251 99.875 C 65.235 99.669,65.290 99.500,65.374 99.500 C 65.457 99.500,65.503 99.294,65.477 99.042 C 65.451 98.789,65.474 98.508,65.529 98.417 C 65.584 98.325,65.684 97.462,65.750 96.500 C 65.817 95.537,65.894 94.487,65.922 94.167 C 66.103 92.101,65.661 91.190,64.309 90.843 C 63.390 90.608,62.500 89.870,62.500 89.343 L 62.500 88.987 62.135 89.327 C 61.935 89.514,61.616 89.669,61.427 89.673 C 59.652 89.705,58.181 90.136,57.819 90.728 C 57.424 91.376,57.367 98.042,57.708 103.758 C 57.999 108.634,57.977 112.111,57.648 113.167 C 57.577 113.396,57.485 114.019,57.443 114.552 C 57.368 115.500,57.016 116.167,56.589 116.167 C 56.330 116.167,55.566 116.981,55.338 117.500 C 54.766 118.799,53.444 120.290,52.542 120.655 C 52.244 120.775,52.000 120.934,52.000 121.007 C 52.000 121.080,51.756 121.193,51.458 121.257 C 50.613 121.440,49.797 121.915,49.238 122.550 C 48.270 123.649,43.254 123.666,41.271 122.577 C 39.689 121.707,37.515 121.155,34.401 120.832 C 32.513 120.636,32.474 120.620,32.094 119.916 C 31.738 119.254,31.265 118.900,30.569 118.774 C 30.302 118.726,29.896 118.644,29.667 118.592 C 29.438 118.540,28.924 118.457,28.527 118.407 C 27.629 118.296,27.230 118.054,26.991 117.479 C 26.719 116.821,26.231 116.437,24.792 115.750 C 24.081 115.410,23.500 115.074,23.500 115.003 C 23.500 114.712,21.582 113.323,20.941 113.150 C 19.928 112.877,19.500 112.642,19.500 112.361 C 19.500 111.672,18.667 110.694,17.849 110.422 C 17.044 110.155,16.833 109.931,16.833 109.346 C 16.833 108.794,15.821 107.028,15.165 106.435 C 14.434 105.775,14.113 105.121,13.751 103.560 C 13.504 102.494,12.638 100.494,12.193 99.960 C 11.639 99.295,11.993 97.181,12.856 96.000 C 13.189 95.545,14.166 92.845,14.168 92.375 C 14.170 91.724,14.523 90.833,14.780 90.833 C 15.375 90.833,16.145 90.152,16.434 89.368 C 16.817 88.331,16.887 88.253,17.633 88.030 C 18.374 87.808,18.844 87.347,19.275 86.420 C 19.472 85.997,19.734 85.716,20.000 85.642 C 22.234 85.023,22.380 84.956,23.191 84.174 C 24.096 83.302,24.742 82.977,26.208 82.656 C 26.735 82.541,27.167 82.384,27.167 82.307 C 27.167 82.230,27.279 82.167,27.417 82.167 C 27.554 82.167,27.667 82.097,27.667 82.011 C 27.667 81.832,28.316 81.582,28.625 81.641 C 28.740 81.663,28.833 81.603,28.833 81.507 C 28.833 81.412,28.966 81.333,29.127 81.333 C 29.289 81.333,29.685 81.192,30.006 81.020 C 30.327 80.848,30.891 80.665,31.258 80.614 C 31.625 80.562,32.129 80.443,32.379 80.348 C 32.629 80.253,32.833 80.220,32.833 80.275 C 32.833 80.329,32.937 80.288,33.064 80.183 C 33.338 79.956,35.017 79.500,35.582 79.500 C 35.801 79.500,36.027 79.424,36.085 79.331 C 36.143 79.237,36.256 79.202,36.336 79.252 C 36.473 79.336,37.767 79.092,38.333 78.875 C 38.471 78.822,38.640 78.763,38.708 78.744 C 38.777 78.724,38.852 78.693,38.875 78.675 C 38.898 78.656,39.038 78.617,39.187 78.588 C 39.576 78.513,40.521 78.041,40.960 77.702 C 41.323 77.423,41.435 77.137,41.586 76.107 C 41.664 75.573,41.611 75.658,42.830 74.125 C 43.565 73.201,43.811 73.000,44.208 73.000 C 44.473 73.000,44.816 72.874,44.970 72.720 C 45.232 72.458,45.226 72.446,44.875 72.538 C 44.669 72.591,44.500 72.569,44.500 72.489 C 44.500 72.408,44.308 72.414,44.074 72.504 C 43.839 72.593,43.688 72.600,43.737 72.520 C 43.894 72.267,42.675 71.150,42.080 71.001 C 41.129 70.763,37.840 70.982,37.445 71.310 C 37.321 71.413,37.170 71.448,37.110 71.387 C 37.049 71.327,37.000 71.370,37.000 71.482 C 37.000 71.594,36.935 71.646,36.855 71.597 C 36.776 71.548,36.414 71.834,36.052 72.232 C 35.409 72.938,35.353 72.962,33.904 73.153 C 30.803 73.563,28.833 74.188,28.833 74.762 C 28.833 74.893,28.746 75.000,28.639 75.000 C 28.532 75.000,28.494 75.049,28.554 75.110 C 28.794 75.350,28.254 75.667,27.605 75.667 C 27.025 75.667,25.906 75.845,24.054 76.234 C 23.616 76.325,22.667 77.141,22.667 77.425 C 22.667 78.125,19.658 78.538,16.167 78.316 C 15.112 78.249,13.863 78.188,13.390 78.181 C 12.611 78.168,12.462 78.100,11.791 77.447 C 11.291 76.962,10.748 76.633,10.119 76.435 C 9.606 76.274,9.098 76.035,8.990 75.904 C 8.881 75.774,8.698 75.667,8.583 75.667 C 8.468 75.667,8.284 75.450,8.175 75.186 C 7.958 74.662,7.254 73.968,7.098 74.125 C 7.044 74.178,7.000 74.130,7.000 74.018 C 7.000 73.906,6.935 73.854,6.857 73.902 C 6.658 74.025,6.205 72.907,6.085 72.000 C 5.792 69.785,5.361 68.513,4.457 67.192 C 3.574 65.901,3.482 57.529,4.338 56.327 C 5.378 54.867,5.867 52.818,6.167 48.667 C 6.398 45.485,6.506 45.054,7.258 44.327 C 8.185 43.431,8.427 42.905,8.928 40.699 C 9.388 38.670,9.400 38.644,10.072 38.194 C 10.741 37.745,11.264 36.919,11.371 36.146 C 11.449 35.580,11.604 35.382,12.461 34.760 C 12.885 34.452,13.423 33.847,13.675 33.395 C 13.998 32.814,14.347 32.464,14.906 32.164 C 15.404 31.896,15.852 31.477,16.148 31.001 C 16.485 30.459,16.876 30.121,17.591 29.753 C 18.475 29.297,18.796 28.973,19.435 27.895 C 19.605 27.607,19.916 27.579,23.452 27.531 C 28.000 27.468,28.277 27.517,28.806 28.472 C 29.292 29.348,30.084 29.771,31.700 30.016 C 32.369 30.118,33.088 30.233,33.298 30.272 C 33.629 30.333,33.861 30.656,33.999 31.250 C 34.077 31.583,35.006 32.333,35.340 32.333 C 35.906 32.333,36.892 33.002,37.316 33.673 C 37.535 34.018,37.887 34.380,38.100 34.477 C 38.521 34.669,39.058 35.600,39.244 36.462 C 39.390 37.139,40.009 37.894,40.629 38.151 C 41.054 38.327,41.126 38.483,41.400 39.840 C 41.810 41.870,42.232 42.663,43.125 43.083 C 43.534 43.276,43.862 43.557,43.903 43.750 C 44.520 46.674,44.928 47.574,45.870 48.081 C 46.549 48.446,46.758 48.773,46.913 49.712 C 47.041 50.490,47.850 51.440,48.505 51.585 C 48.787 51.646,49.477 52.154,50.123 52.776 C 50.743 53.372,51.456 53.968,51.707 54.100 C 52.203 54.361,52.721 55.245,52.917 56.167 C 53.123 57.137,53.639 57.977,54.210 58.271 C 54.817 58.584,55.035 58.854,55.653 60.059 C 56.427 61.570,57.707 61.897,58.635 60.821 C 59.552 59.758,58.712 56.627,57.162 55.329 C 56.633 54.886,56.132 54.258,55.828 53.656 C 55.561 53.127,55.152 52.489,54.921 52.239 C 54.689 51.989,54.494 51.739,54.487 51.684 C 54.480 51.629,54.443 51.433,54.406 51.250 C 54.368 51.067,54.326 50.729,54.312 50.500 C 54.299 50.271,54.220 49.801,54.136 49.455 C 54.024 48.988,54.048 48.710,54.228 48.372 C 55.179 46.591,55.341 45.166,54.641 44.734 C 54.560 44.684,54.545 44.555,54.607 44.447 C 54.669 44.339,54.661 44.304,54.588 44.369 C 54.516 44.435,54.316 44.413,54.145 44.322 C 53.901 44.191,53.833 44.213,53.833 44.421 C 53.833 44.581,53.756 44.639,53.638 44.566 C 53.507 44.485,53.478 44.536,53.550 44.723 C 53.619 44.904,53.571 45.000,53.411 45.000 C 53.115 45.000,53.096 45.196,53.367 45.467 C 53.522 45.622,53.522 45.667,53.367 45.667 C 53.257 45.667,53.167 45.883,53.167 46.148 C 53.167 46.550,53.050 46.685,52.458 46.968 L 51.750 47.307 51.457 46.945 C 51.228 46.662,51.170 46.300,51.190 45.275 C 51.215 43.922,51.073 43.607,50.515 43.779 C 50.324 43.838,50.341 43.787,50.574 43.597 C 50.751 43.452,50.976 43.334,51.074 43.336 C 51.177 43.337,51.166 43.392,51.048 43.467 C 50.902 43.559,50.935 43.650,51.167 43.795 C 51.431 43.960,51.471 43.953,51.395 43.754 C 51.328 43.580,51.401 43.532,51.660 43.582 C 51.957 43.639,51.999 43.592,51.908 43.305 C 51.827 43.051,51.854 42.993,52.008 43.088 C 52.135 43.167,52.176 43.151,52.113 43.047 C 51.862 42.643,50.167 43.260,50.167 43.756 C 50.167 43.874,50.035 43.945,49.875 43.915 C 49.715 43.884,49.448 43.853,49.283 43.846 C 49.021 43.835,48.988 43.697,49.030 42.770 C 49.066 41.957,49.130 41.727,49.302 41.793 C 49.426 41.841,49.465 41.926,49.389 41.982 C 49.313 42.038,49.227 42.190,49.199 42.320 C 49.157 42.515,49.193 42.519,49.407 42.341 C 49.550 42.223,49.677 41.966,49.689 41.771 C 49.702 41.560,49.760 41.652,49.833 42.000 L 49.956 42.583 49.978 41.885 C 50.003 41.105,49.903 40.980,49.417 41.176 C 49.233 41.250,49.177 41.315,49.292 41.322 C 49.406 41.328,49.500 41.406,49.500 41.495 C 49.500 41.584,49.388 41.613,49.250 41.560 C 48.941 41.442,48.936 41.015,49.239 40.615 C 49.384 40.424,49.508 40.378,49.577 40.490 C 49.637 40.587,49.602 40.667,49.500 40.667 C 49.398 40.667,49.365 40.750,49.428 40.851 C 49.503 40.974,49.577 40.979,49.647 40.865 C 49.816 40.591,50.357 41.078,50.235 41.395 C 50.174 41.555,50.215 41.667,50.336 41.667 C 50.491 41.667,50.487 41.738,50.318 41.958 C 50.195 42.119,50.160 42.194,50.240 42.126 C 50.403 41.988,50.869 42.308,50.760 42.483 C 50.722 42.545,51.011 42.609,51.401 42.626 C 51.929 42.649,52.111 42.594,52.111 42.412 C 52.111 42.277,52.044 42.167,51.962 42.167 C 51.881 42.167,51.870 42.076,51.938 41.965 C 52.400 41.218,51.678 40.179,51.051 40.689 C 50.808 40.885,50.790 40.882,50.917 40.667 C 51.039 40.460,51.020 40.452,50.810 40.622 C 50.184 41.129,49.661 40.531,49.739 39.397 C 49.804 38.447,49.779 38.356,49.363 38.049 C 48.740 37.590,48.106 37.266,48.233 37.472 C 48.291 37.566,48.251 37.698,48.144 37.764 C 48.029 37.835,47.993 37.813,48.056 37.711 C 48.115 37.616,48.059 37.451,47.931 37.345 C 47.756 37.200,47.683 37.200,47.635 37.345 C 47.593 37.471,47.495 37.445,47.349 37.268 C 47.157 37.038,47.170 36.999,47.438 36.995 C 47.732 36.990,47.733 36.980,47.455 36.818 C 47.292 36.724,47.200 36.581,47.249 36.501 C 47.298 36.422,47.263 36.309,47.169 36.252 C 47.076 36.194,47.000 36.016,47.000 35.856 C 47.000 35.696,46.739 35.312,46.419 35.002 C 46.100 34.693,45.876 34.402,45.922 34.356 C 45.968 34.310,45.667 33.952,45.253 33.561 C 44.839 33.169,44.500 32.779,44.500 32.693 C 44.500 32.607,44.331 32.494,44.125 32.442 C 43.720 32.340,43.335 31.259,42.987 29.250 C 42.721 27.709,42.348 26.885,41.619 26.227 C 40.806 25.492,40.690 24.745,40.676 20.166 C 40.665 16.646,40.701 16.502,41.917 15.257 C 42.905 14.246,43.386 13.391,43.589 12.292 C 43.666 11.873,43.794 11.665,43.977 11.663 C 44.530 11.656,45.695 10.992,46.544 10.202 C 47.402 9.403,48.448 8.886,50.000 8.493 C 50.543 8.355,50.957 8.083,51.500 7.508 C 52.448 6.504,52.908 6.409,58.000 6.167 C 63.659 5.897,67.244 5.897,73.333 6.167 M78.912 52.208 C 78.825 53.474,78.611 54.332,78.316 54.599 C 78.142 54.756,78.000 54.827,78.000 54.755 C 78.000 54.684,77.887 54.719,77.750 54.833 C 77.612 54.947,77.500 54.977,77.500 54.900 C 77.500 54.679,76.974 55.487,76.913 55.801 C 76.883 55.956,76.853 56.297,76.846 56.558 C 76.826 57.290,75.858 58.178,75.142 58.120 C 74.466 58.065,74.357 57.083,74.890 55.833 C 74.948 55.696,75.098 55.283,75.222 54.917 C 75.455 54.227,75.501 54.202,77.122 53.898 C 77.457 53.835,78.035 53.039,77.982 52.713 C 77.864 51.999,78.021 51.667,78.474 51.667 C 78.906 51.667,78.945 51.715,78.912 52.208 M54.333 53.415 C 54.333 53.150,54.993 54.142,55.259 54.806 C 55.519 55.458,56.577 56.500,56.978 56.500 C 57.213 56.500,57.548 57.162,57.979 58.476 C 58.363 59.644,58.309 59.899,57.556 60.491 L 57.111 60.842 56.656 60.406 C 56.405 60.166,56.042 59.534,55.847 59.002 C 55.539 58.155,55.412 58.001,54.837 57.771 C 53.863 57.381,53.694 57.003,53.617 55.047 C 53.580 54.111,53.614 53.384,53.692 53.432 C 53.770 53.480,53.833 53.431,53.833 53.323 C 53.833 53.176,53.897 53.179,54.083 53.333 C 54.221 53.447,54.333 53.484,54.333 53.415 M74.417 59.014 C 74.303 61.097,72.407 61.988,71.827 60.230 C 71.467 59.140,72.402 58.250,73.906 58.250 C 74.458 58.250,74.459 58.252,74.417 59.014 M70.667 62.218 C 70.667 62.818,70.240 63.053,69.951 62.613 C 69.692 62.216,69.692 62.185,69.962 62.114 C 70.497 61.974,70.667 61.999,70.667 62.218 M50.667 68.492 C 50.346 68.565,49.852 68.670,49.570 68.726 C 48.725 68.894,47.616 69.325,47.074 69.697 C 46.479 70.104,46.437 71.000,47.014 71.000 C 47.220 71.000,47.291 71.083,47.227 71.250 C 47.164 71.414,47.237 71.506,47.441 71.519 C 47.611 71.529,47.950 71.548,48.194 71.560 C 48.439 71.573,48.695 71.640,48.764 71.708 C 48.833 71.777,49.097 71.833,49.351 71.833 C 49.606 71.833,49.852 71.896,49.899 71.972 C 49.946 72.048,50.419 72.207,50.951 72.325 C 51.482 72.443,52.112 72.678,52.350 72.847 C 53.043 73.338,54.299 73.561,54.740 73.272 C 55.126 73.019,55.013 70.507,54.583 69.815 C 54.149 69.114,51.650 68.270,50.667 68.492 M71.667 69.240 C 71.254 69.366,70.750 69.521,70.547 69.585 C 70.344 69.650,70.135 69.838,70.082 70.004 C 69.729 71.117,71.218 72.008,73.833 72.249 C 74.429 72.303,75.010 72.357,75.125 72.369 C 75.240 72.380,75.333 72.457,75.333 72.540 C 75.333 72.624,75.549 72.518,75.812 72.304 C 76.075 72.091,76.258 71.860,76.219 71.792 C 76.179 71.723,76.231 71.667,76.333 71.667 C 76.436 71.667,76.473 71.591,76.416 71.499 C 76.359 71.407,76.429 71.286,76.572 71.231 C 76.715 71.177,76.793 71.070,76.747 70.995 C 76.700 70.919,76.813 70.809,76.998 70.751 C 77.182 70.692,77.333 70.570,77.333 70.479 C 77.333 70.388,77.408 70.360,77.500 70.417 C 77.592 70.473,77.667 70.443,77.667 70.349 C 77.667 70.104,77.028 69.797,76.804 69.935 C 76.692 70.004,76.661 69.977,76.728 69.869 C 76.794 69.763,76.717 69.689,76.545 69.692 C 76.191 69.699,75.806 69.604,74.917 69.290 C 74.036 68.979,72.597 68.957,71.667 69.240 M74.116 70.167 C 74.254 70.167,73.746 70.612,73.391 70.803 C 73.002 71.010,71.623 70.563,71.720 70.261 C 71.837 69.897,72.899 69.702,73.479 69.938 C 73.788 70.064,74.074 70.167,74.116 70.167 M52.468 70.079 C 52.818 70.429,51.774 70.736,51.122 70.475 C 50.693 70.303,50.681 70.275,50.956 70.058 C 51.232 69.840,52.243 69.854,52.468 70.079 M77.620 73.769 C 77.582 73.807,77.157 73.847,76.677 73.858 C 75.852 73.876,75.807 73.900,75.878 74.272 C 75.920 74.489,75.902 74.667,75.839 74.667 C 75.511 74.667,75.919 75.631,76.388 75.965 C 76.679 76.171,77.213 76.556,77.576 76.818 C 78.431 77.438,79.100 77.021,79.200 75.807 C 79.231 75.436,78.547 73.848,78.345 73.821 C 78.293 73.814,78.124 73.783,77.970 73.754 C 77.816 73.724,77.658 73.731,77.620 73.769 M46.443 74.292 C 46.085 74.876,46.268 75.585,46.792 75.636 C 47.194 75.674,47.333 75.621,47.333 75.427 C 47.333 75.284,47.248 75.167,47.143 75.167 C 46.816 75.167,46.506 74.611,46.701 74.375 C 46.821 74.230,46.820 74.167,46.697 74.167 C 46.599 74.167,46.485 74.223,46.443 74.292 M78.423 75.176 C 78.677 75.589,78.341 76.225,78.021 75.935 C 77.857 75.788,77.617 75.664,77.487 75.661 C 77.333 75.658,77.387 75.541,77.643 75.328 C 78.089 74.957,78.266 74.922,78.423 75.176 M61.875 78.875 C 61.875 79.356,61.908 79.619,61.949 79.458 C 61.991 79.298,62.086 79.167,62.161 79.167 C 62.236 79.167,62.328 78.904,62.365 78.583 C 62.419 78.123,62.375 78.000,62.155 78.000 C 61.931 78.000,61.877 78.170,61.875 78.875 M59.514 80.286 C 59.419 80.495,59.272 80.667,59.188 80.667 C 59.104 80.667,59.175 80.940,59.346 81.275 C 59.516 81.609,59.608 81.959,59.551 82.053 C 59.487 82.155,59.554 82.182,59.717 82.119 C 59.867 82.062,60.034 82.086,60.088 82.174 C 60.142 82.262,60.088 82.334,59.968 82.336 C 59.789 82.338,59.789 82.363,59.967 82.476 C 60.087 82.552,60.171 82.682,60.156 82.765 C 60.082 83.157,60.208 83.363,60.708 83.668 C 61.006 83.849,61.212 84.022,61.167 84.052 C 61.121 84.082,61.213 84.236,61.371 84.394 C 61.722 84.746,61.991 85.663,62.255 87.417 C 62.433 88.593,62.459 88.657,62.478 87.958 C 62.490 87.523,62.575 87.167,62.667 87.167 C 62.758 87.167,62.833 87.022,62.833 86.845 C 62.833 86.668,62.937 86.420,63.063 86.294 C 63.587 85.770,63.585 83.422,63.059 82.544 C 62.797 82.107,62.542 81.600,62.492 81.417 C 62.443 81.233,62.293 81.083,62.159 81.083 C 61.867 81.083,61.333 80.534,61.333 80.234 C 61.333 80.116,61.265 79.977,61.181 79.926 C 61.009 79.819,61.040 80.262,61.217 80.440 C 61.391 80.613,61.357 80.833,61.157 80.833 C 61.060 80.833,61.027 80.758,61.083 80.667 C 61.140 80.575,61.107 80.500,61.010 80.500 C 60.913 80.500,60.833 80.387,60.833 80.250 C 60.833 79.945,60.643 79.929,60.342 80.208 C 60.160 80.377,60.134 80.368,60.207 80.161 C 60.353 79.740,59.710 79.856,59.514 80.286 " stroke="none" fill="#239397" fill-rule="evenodd"></path></g></svg>
